<?xml version="1.0" encoding="UTF-8" standalone="no"?>
<!-- Created with Inkscape (http://www.inkscape.org/) -->

<svg
   width="39.192799mm"
   height="42.526489mm"
   viewBox="0 0 39.192799 42.526489"
   version="1.1"
   id="svg1"
   inkscape:version="1.3.2 (091e20e, 2023-11-25, custom)"
   sodipodi:docname="cal-law.svg"
   xmlns:inkscape="http://www.inkscape.org/namespaces/inkscape"
   xmlns:sodipodi="http://sodipodi.sourceforge.net/DTD/sodipodi-0.dtd"
   xmlns="http://www.w3.org/2000/svg"
   xmlns:svg="http://www.w3.org/2000/svg">
  <sodipodi:namedview
     id="namedview1"
     pagecolor="#000000"
     bordercolor="#000000"
     borderopacity="0.25"
     inkscape:showpageshadow="2"
     inkscape:pageopacity="0.0"
     inkscape:pagecheckerboard="0"
     inkscape:deskcolor="#000000"
     inkscape:document-units="mm"
     inkscape:zoom="5.9162855"
     inkscape:cx="68.877677"
     inkscape:cy="78.258563"
     inkscape:window-width="2400"
     inkscape:window-height="1494"
     inkscape:window-x="-11"
     inkscape:window-y="-11"
     inkscape:window-maximized="1"
     inkscape:current-layer="layer1" />
  <defs
     id="defs1">
    <pattern
       id="EMFhbasepattern"
       patternUnits="userSpaceOnUse"
       width="6"
       height="6"
       x="0"
       y="0" />
  </defs>
  <g
     inkscape:label="Layer 1"
     inkscape:groupmode="layer"
     id="layer1"
     transform="translate(-115.67643,-121.64042)">
    <path
       style="fill:none;fill-opacity:1;stroke:none;stroke-width:0.264999;stroke-linecap:round;stroke-linejoin:bevel;stroke-dasharray:none"
       d="m 115.82763,151.37835 c -1.50242,-10.47933 8.4753,-19.31384 17.35182,-26.20662 l -0.17889,-3.39881"
       id="path1"
       sodipodi:nodetypes="ccc" />
    <path
       style="fill:none;fill-opacity:1;stroke:none;stroke-width:0.264999;stroke-linecap:round;stroke-linejoin:bevel;stroke-dasharray:none"
       d="m 115.82763,151.37835 c 10.99953,-15.95462 24.28401,-22.67828 38.68216,-25.89357"
       id="path2"
       sodipodi:nodetypes="cc" />
    <path
       style="fill:none;fill-opacity:1;stroke:none;stroke-width:0.264999;stroke-linecap:round;stroke-linejoin:bevel;stroke-dasharray:none"
       d="m 116.58789,164.03445 0.2236,-10.3306 c 1.34338,-1.54413 2.36365,-1.47274 3.48826,-1.92301 l 0.17888,12.16417 z"
       id="path3"
       sodipodi:nodetypes="ccccc" />
    <path
       style="fill:none;fill-opacity:1;stroke:none;stroke-width:0.264999;stroke-linecap:round;stroke-linejoin:bevel;stroke-dasharray:none"
       d="m 123.02774,164.16691 5.09821,-0.26663 v -20.21397 c -1.92891,0.63107 -3.88292,1.18182 -5.23238,3.66713 z"
       id="path4"
       sodipodi:nodetypes="ccccc" />
    <path
       style="fill:none;fill-opacity:1;stroke:none;stroke-width:0.264999;stroke-linecap:round;stroke-linejoin:bevel;stroke-dasharray:none"
       d="M 132.73224,163.90028 V 140.60054"
       id="path5" />
    <path
       style="fill:none;fill-opacity:1;stroke:none;stroke-width:0.292946;stroke-linecap:round;stroke-linejoin:bevel;stroke-dasharray:none"
       d="M 141.26082,163.87086 V 135.39758"
       id="path5-4" />
    <path
       style="fill:none;fill-opacity:1;stroke:none;stroke-width:0.264999;stroke-linecap:round;stroke-linejoin:bevel;stroke-dasharray:none"
       d="m 132.73224,163.90028 8.52858,-0.0294"
       id="path6" />
    <path
       style="fill:none;fill-opacity:1;stroke:none;stroke-width:0.264999;stroke-linecap:round;stroke-linejoin:bevel;stroke-dasharray:none"
       d="m 132.73224,140.60054 c 2.42905,-2.85751 5.26474,-4.61129 8.52858,-5.20296"
       id="path7"
       sodipodi:nodetypes="cc" />
    <path
       style="fill:none;fill-opacity:1;stroke:none;stroke-width:0.264999;stroke-linecap:round;stroke-linejoin:bevel;stroke-dasharray:none"
       d="m 133.00056,121.77292 17.3071,-0.1325 c 2.49308,0.51502 3.46433,2.74424 4.20213,3.84436"
       id="path8"
       sodipodi:nodetypes="ccc" />
    <path
       style="fill:none;fill-opacity:1;stroke:none;stroke-width:0.264999;stroke-linecap:round;stroke-linejoin:bevel;stroke-dasharray:none"
       d="M 146.10387,164.01733 V 132.2824"
       id="path9" />
    <path
       style="fill:none;fill-opacity:1;stroke:none;stroke-width:0.264999;stroke-linecap:round;stroke-linejoin:bevel;stroke-dasharray:none"
       d="m 146.10387,132.2824 c 3.23833,-2.79017 5.99027,-3.1484 8.76536,-3.62241 l -0.0894,15.33936 c -4.76568,-1.59556 -3.60107,10.83906 -3.75658,20.15048 l -4.91933,-0.1325"
       id="path10"
       sodipodi:nodetypes="ccccc" />
    <path
       style="fill:#7c7c7e;fill-opacity:1;stroke:none;stroke-width:0.169291;stroke-linecap:round;stroke-linejoin:bevel;stroke-dasharray:none"
       d="m 148.39047,-47.264259 c -0.0725,-0.117314 -0.16392,-2.233074 -0.20316,-4.70169 -0.0814,-5.124329 0.15282,-8.035777 0.98961,-12.299483 3.85227,-19.628624 17.66007,-39.380978 43.34675,-62.008478 4.98861,-4.39448 13.51714,-11.40757 19.87275,-16.34154 0.79928,-0.6205 1.54256,-1.2358 1.65172,-1.36733 0.15243,-0.18367 0.12132,-1.66438 -0.13407,-6.3819 -0.1829,-3.37851 -0.31054,-6.16475 -0.28365,-6.19164 0.0269,-0.0269 14.58031,-0.16639 32.34092,-0.30997 36.61895,-0.29606 33.0171,-0.41415 36.30037,1.19017 2.84801,1.39165 4.89565,3.17526 7.30589,6.36388 0.97215,1.2861 3.59622,5.46007 3.59622,5.72031 0,0.0958 -0.13367,0.17424 -0.29704,0.17424 -0.43995,0 -10.59313,2.5442 -14.49265,3.63159 -24.3996,6.80392 -45.63734,16.18042 -64.9901,28.69326 -23.73812,15.348274 -44.80248,35.923384 -63.2056,61.737547 -0.86157,1.208529 -1.58891,2.221401 -1.61631,2.250826 -0.0274,0.02943 -0.10915,-0.04248 -0.18165,-0.159792 z"
       id="path13"
       transform="matrix(0.26458333,0,0,0.26458333,76.651863,163.36363)" />
    <path
       style="fill:#7c7c7e;fill-opacity:1;stroke:none;stroke-width:0.169291;stroke-linecap:round;stroke-linejoin:bevel;stroke-dasharray:none"
       d="m 273.3979,2.1880503 c -3.76503,-0.1158548 -7.62514,-0.2182079 -8.57802,-0.2274536 l -1.73251,-0.016809 V -57.63623 -117.21625 l 1.648,-1.31246 c 6.33818,-5.04775 12.55364,-8.10422 20.38633,-10.02505 1.88159,-0.46143 7.15558,-1.4861 9.12737,-1.77334 l 0.82171,-0.1197 -0.10457,16.20616 c -0.24064,37.291253 -0.28494,40.323377 -0.58746,40.204173 -0.60561,-0.238631 -2.71193,-0.287378 -3.58965,-0.08307 -2.52844,0.588536 -4.33398,2.267904 -5.90828,5.495402 -2.17798,4.465121 -3.22385,9.976211 -4.07375,21.466172 -0.11847,1.601742 -0.21435,11.2026 -0.26036,26.072102 -0.0401,12.9452006 -0.12468,23.524991 -0.18806,23.5106442 -0.0634,-0.014345 -3.19572,-0.1208731 -6.96075,-0.2367279 z"
       id="path14"
       transform="matrix(0.26458333,0,0,0.26458333,76.651863,163.36363)" />
    <path
       style="fill:#7c7c7e;fill-opacity:1;stroke:none;stroke-width:0.169291;stroke-linecap:round;stroke-linejoin:bevel;stroke-dasharray:none"
       d="m 212.54994,-42.213987 0.001,-43.6507 1.73147,-1.860789 c 7.16214,-7.697054 14.5533,-12.697174 23.02861,-15.578864 1.80141,-0.6125 5.38207,-1.57227 5.87362,-1.57438 0.28109,-0.001 0.2958,2.63699 0.2958,53.046175 V 1.2149076 l -2.56225,0.1109023 c -1.40924,0.060996 -8.36884,0.1109024 -15.46579,0.1109024 h -12.90353 z"
       id="path15"
       transform="matrix(0.26458333,0,0,0.26458333,76.651863,163.36363)" />
    <path
       style="fill:#7c7c7e;fill-opacity:1;stroke:none;stroke-width:0.169291;stroke-linecap:round;stroke-linejoin:bevel;stroke-dasharray:none"
       d="m 175.80433,-6.1965553 c -0.0588,-4.7727027 -0.18771,-18.8815757 -0.28658,-31.3530497 -0.16912,-21.332304 -0.16253,-22.708903 0.11136,-23.240934 0.55611,-1.080274 1.97598,-3.064576 3.12972,-4.373881 2.85903,-3.244514 6.54537,-5.442547 12.70421,-7.57505 l 2.49312,-0.863244 v 37.507551 37.5075509 l -0.88738,0.093653 c -0.48806,0.05151 -4.04392,0.2478396 -7.90192,0.4362855 -3.85799,0.1884477 -7.5188,0.3867596 -8.13513,0.4406955 l -1.12059,0.098067 z"
       id="path16"
       transform="matrix(0.26458333,0,0,0.26458333,76.651863,163.36363)" />
    <path
       style="fill:#7c7c7e;fill-opacity:1;stroke:none;stroke-width:0.169291;stroke-linecap:round;stroke-linejoin:bevel;stroke-dasharray:none"
       d="m 151.53272,1.6629759 c 10e-4,-0.1709265 0.18765,-8.7916042 0.41477,-19.1570609 l 0.41295,-18.846285 1.34782,-1.288872 c 1.63281,-1.561402 3.32155,-2.708773 5.05946,-3.437508 1.41603,-0.593766 5.43422,-1.843242 5.55127,-1.726193 0.0541,0.05414 0.71368,39.4475398 0.73102,43.66252917 l 0.003,0.70055953 -2.57763,0.099158 c -1.4177,0.054536 -4.46015,0.1453479 -6.761,0.2018023 -3.98596,0.0978 -4.18328,0.087979 -4.18154,-0.2081306 z"
       id="path17"
       transform="matrix(0.26458333,0,0,0.26458333,76.651863,163.36363)" />
  </g>
</svg>
