<?xml version="1.0" encoding="UTF-8" standalone="no"?>
<!-- Created with Inkscape (http://www.inkscape.org/) -->

<svg
   width="47.780651mm"
   height="110.02872mm"
   viewBox="0 0 47.780651 110.02873"
   version="1.1"
   id="svg1"
   xml:space="preserve"
   inkscape:version="1.3.2 (091e20e, 2023-11-25, custom)"
   sodipodi:docname="milbert.svg"
   xmlns:inkscape="http://www.inkscape.org/namespaces/inkscape"
   xmlns:sodipodi="http://sodipodi.sourceforge.net/DTD/sodipodi-0.dtd"
   xmlns="http://www.w3.org/2000/svg"
   xmlns:svg="http://www.w3.org/2000/svg"><sodipodi:namedview
     id="namedview1"
     pagecolor="#000000"
     bordercolor="#000000"
     borderopacity="0"
     inkscape:showpageshadow="2"
     inkscape:pageopacity="0.0"
     inkscape:pagecheckerboard="0"
     inkscape:deskcolor="#000000"
     inkscape:document-units="mm"
     showborder="false"
     inkscape:zoom="2.719953"
     inkscape:cx="-44.302236"
     inkscape:cy="177.94425"
     inkscape:window-width="2400"
     inkscape:window-height="1494"
     inkscape:window-x="-11"
     inkscape:window-y="-11"
     inkscape:window-maximized="1"
     inkscape:current-layer="layer1" /><defs
     id="defs1"><clipPath
       clipPathUnits="userSpaceOnUse"
       id="clipPath40"><path
         id="path40"
         style="fill:#ff0000;fill-opacity:1;fill-rule:nonzero;stroke:none;stroke-width:0.264583"
         d="m 75.28016,190.28348 v 4.93406 h 4.861203 v -4.93406 z m 1.665531,2.55384 c 0.06887,-0.005 0.135406,0.0673 0.114205,0.20103 -0.01365,0.0862 -0.03576,0.17059 -0.05426,0.2558 -0.01524,0.07 -0.02275,0.1416 -0.02894,0.2129 -0.0027,0.0501 -0.01381,0.0994 -0.0217,0.14883 -0.0034,0.0383 -0.01132,0.0756 -0.01913,0.11317 -0.005,0.0344 -0.02114,0.0655 -0.02894,0.0992 -0.0057,0.0267 -0.0077,0.0537 -0.01241,0.0806 -0.0073,0.0369 -0.0245,0.0705 -0.03359,0.10696 -0.0055,0.0325 -0.01418,0.0641 -0.02376,0.0956 -0.0073,0.0266 -0.0095,0.0546 -0.01447,0.0816 -0.0016,0.007 -0.0026,0.0138 -0.0047,0.0207 0.193315,0.12713 0.05864,0.33005 -0.139525,0.19895 -0.03792,-0.025 -0.07406,-0.0501 -0.09922,-0.0894 -0.02201,-0.14439 -0.02434,-0.0926 0.0052,-0.17776 0.0086,-0.0344 0.0068,-0.0714 0.02016,-0.10491 0.0087,-0.0285 0.01537,-0.0568 0.02066,-0.0863 0.0084,-0.0315 0.01966,-0.0621 0.03049,-0.0925 0.01008,-0.0288 0.0028,-0.0636 0.01497,-0.0925 0.0079,-0.0308 0.0204,-0.0597 0.02739,-0.0904 0.0072,-0.0339 0.01373,-0.0676 0.01654,-0.10232 0.0071,-0.0436 0.01714,-0.0866 0.01963,-0.13074 0.0072,-0.0816 0.01603,-0.1633 0.03359,-0.2434 0.01804,-0.0824 0.03939,-0.16413 0.05271,-0.24753 0.01662,-0.10401 0.0715,-0.15398 0.125055,-0.15761 z" /></clipPath></defs><g
     inkscape:label="Layer 1"
     inkscape:groupmode="layer"
     id="layer1"
     transform="translate(-73.192858,-99.158027)"><path
       style="fill:none;stroke:#000000;stroke-width:0.264583"
       d="m 93.436964,100.92861 c -0.221911,0.34238 -2.889737,0.18926 -2.465155,-0.52629 0.729354,-1.229177 4.149113,-1.234311 3.899896,0.003 1.516553,-2.038566 2.026066,-0.791 2.713004,-0.1224 1.167469,-1.092696 2.175327,-1.263194 2.930581,0.0258 -0.13407,-0.804446 3.28065,-1.602147 3.43511,0.0191 -0.03,-0.765121 3.48131,-1.111432 3.33948,0.19337 -0.34022,0.29644 -0.19493,0.45532 -1.80937,0.75177"
       id="path1"
       sodipodi:nodetypes="cscccccc" /><path
       style="fill:none;stroke:#000000;stroke-width:0.264583"
       d="M 93.436963,100.92861 90.623791,126.8344"
       id="path2" /><path
       style="fill:none;stroke:#000000;stroke-width:0.264583"
       d="m 105.48051,101.27296 1.43883,26.07992"
       id="path2-8"
       sodipodi:nodetypes="cc" /><ellipse
       style="fill:none;stroke:#000000;stroke-width:0.296309"
       id="path3"
       ry="2.8696115"
       rx="1.8452781"
       cy="112.27962"
       cx="97.759834" /><ellipse
       style="fill:none;stroke:#000000;stroke-width:0.298272"
       id="path3-5"
       ry="3.0427518"
       rx="1.7634047"
       cy="112.10972"
       cx="101.36528" /><path
       style="fill:none;stroke:#000000;stroke-width:0.264583"
       d="m 92.265306,112.10972 3.649249,0.1699"
       id="path4" /><path
       style="fill:none;stroke:#000000;stroke-width:0.264583"
       d="m 103.12868,112.10972 h 2.90103"
       id="path5" /><path
       style="fill:none;stroke:#000000;stroke-width:0.264583"
       d="m 97.759834,116.0004 c -4.661201,5.69039 7.901616,5.90607 3.235896,-0.17023"
       id="path6"
       sodipodi:nodetypes="cc" /><path
       style="fill:none;stroke:#000000;stroke-width:0.265;stroke-linecap:round;stroke-linejoin:round;stroke-dasharray:none"
       d="m 92.126654,112.85658 c -0.267676,-0.30551 -0.270453,-0.6717 -1.022535,-0.74651 -0.595454,0.12522 -0.603753,0.11545 -0.782339,0.63934 l -0.23183,2.66118 c 0.02139,0.67597 0.01759,0.94748 0.673062,1.32263 0.706652,0.0192 1.017,-0.98362 1.017,-0.98362"
       id="path7-6"
       sodipodi:nodetypes="cccccc" /><ellipse
       style="fill:none;stroke:#000000;stroke-width:0.264999;stroke-linecap:round;stroke-linejoin:round;stroke-dasharray:none"
       id="path8-7"
       transform="matrix(-0.9954017,-0.09578861,-0.09578861,0.9954017,0,0)"
       ry="1.1104882"
       rx="0.22746713"
       cy="104.83546"
       cx="-101.61341" /><path
       style="fill:none;stroke:#000000;stroke-width:0.264999;stroke-linecap:round;stroke-linejoin:round;stroke-dasharray:none"
       d="m 90.623791,126.8344 c 6.25487,1.32505 11.661849,1.46306 16.295549,0.51848"
       id="path9"
       sodipodi:nodetypes="cc" /><path
       style="fill:none;stroke:#000000;stroke-width:0.264999;stroke-linecap:round;stroke-linejoin:round;stroke-dasharray:none"
       d="m 90.623791,126.8344 c -0.389079,0.52608 -1.053817,1.27268 -1.76311,2.05493 2.827502,0.78378 4.674194,1.67654 6.663335,2.55347 0.408297,-1.36637 1.313887,-2.46751 2.194328,-3.58207"
       id="path10"
       sodipodi:nodetypes="cccc" /><path
       style="fill:none;stroke:#000000;stroke-width:0.265;stroke-linecap:round;stroke-linejoin:round;stroke-dasharray:none"
       d="m 106.16221,113.04515 c 0.28905,-0.28536 0.3183,-0.65039 1.07382,-0.67064 0.58485,0.16794 0.59383,0.1588 0.73407,0.69423 l 0.0388,2.67098 c -0.0702,0.67265 -0.0861,0.94372 -0.76692,1.27051 -0.70619,-0.0319 -0.94323,-1.05457 -0.94323,-1.05457"
       id="path7-6-0"
       sodipodi:nodetypes="cccccc" /><ellipse
       style="fill:none;stroke:#000000;stroke-width:0.264999;stroke-linecap:round;stroke-linejoin:round;stroke-dasharray:none"
       id="path8-7-1"
       transform="rotate(-1.3510166)"
       ry="1.1104882"
       rx="0.22746713"
       cy="116.83926"
       cx="104.36736" /><path
       style="fill:none;stroke:#000000;stroke-width:0.264999;stroke-linecap:round;stroke-linejoin:round;stroke-dasharray:none"
       d="m 92.70335,131.9617 c -1.438689,1.87055 -2.3494,3.91709 -3.250033,5.96699 l 1.037974,0.46429"
       id="path11"
       sodipodi:nodetypes="ccc" /><path
       style="fill:none;stroke:#000000;stroke-width:0.264999;stroke-linecap:round;stroke-linejoin:round;stroke-dasharray:none"
       d="m 90.491291,138.39298 c 1.85536,6.72553 12.788229,9.3934 10.345739,-6.56378"
       id="path12"
       sodipodi:nodetypes="cc" /><path
       style="fill:none;stroke:#000000;stroke-width:0.264999;stroke-linecap:round;stroke-linejoin:round;stroke-dasharray:none"
       d="m 92.70335,131.9617 3.834696,3.92067 c -0.753297,1.0572 -1.218407,2.27051 -0.876993,3.92068 1.846969,-2.01842 3.249596,-4.36155 2.734156,-8.10635"
       id="path13"
       sodipodi:nodetypes="cccc" /><path
       style="fill:none;stroke:#000000;stroke-width:0.264999;stroke-linecap:round;stroke-linejoin:round;stroke-dasharray:none"
       d="m 91.078335,139.83744 5.229132,-4.19082"
       id="path14" /><path
       style="fill:none;stroke:#000000;stroke-width:0.264999;stroke-linecap:round;stroke-linejoin:round;stroke-dasharray:none"
       d="m 92.969674,142.23823 2.633118,-3.07143"
       id="path15" /><path
       style="fill:none;stroke:#000000;stroke-width:0.264999;stroke-linecap:round;stroke-linejoin:round;stroke-dasharray:none"
       d="m 98.634734,143.08747 -2.751415,-3.5315"
       id="path16" /><path
       style="fill:none;stroke:#000000;stroke-width:0.264999;stroke-linecap:round;stroke-linejoin:round;stroke-dasharray:none"
       d="m 99.495749,142.37073 -3.055784,-3.47907"
       id="path17" /><path
       style="fill:none;stroke:#000000;stroke-width:0.264999;stroke-linecap:round;stroke-linejoin:round;stroke-dasharray:none"
       d="m 101.09754,137.91361 -3.129683,-1.63573"
       id="path18" /><path
       style="fill:none;stroke:#000000;stroke-width:0.264999;stroke-linecap:round;stroke-linejoin:round;stroke-dasharray:none"
       d="m 101.23004,134.67866 -2.764737,-0.61738"
       id="path19" /><path
       style="fill:none;stroke:#000000;stroke-width:0.264999;stroke-linecap:round;stroke-linejoin:round;stroke-dasharray:none"
       d="m 98.395207,131.6967 c -1.107706,-0.5637 -1.731535,-1.5196 -0.676865,-3.83597"
       id="path20"
       sodipodi:nodetypes="cc" /><path
       style="fill:none;stroke:#000000;stroke-width:0.264999;stroke-linecap:round;stroke-linejoin:round;stroke-dasharray:none"
       d="m 100.83703,131.8292 c 1.11794,-0.78678 1.62291,-1.9288 0.73041,-3.88072"
       id="path21"
       sodipodi:nodetypes="cc" /><path
       style="fill:none;stroke:#000000;stroke-width:0.264999;stroke-linecap:round;stroke-linejoin:round;stroke-dasharray:none"
       d="m 97.37205,129.1386 c 1.349328,0.73209 2.76954,1.36671 4.30207,1.84689"
       id="path22"
       sodipodi:nodetypes="cc" /><path
       style="fill:none;stroke:#000000;stroke-width:0.264999;stroke-linecap:round;stroke-linejoin:round;stroke-dasharray:none"
       d="m 100.83703,131.8292 -2.441823,-0.1325"
       id="path23" /><path
       style="fill:none;stroke:#000000;stroke-width:0.264999;stroke-linecap:round;stroke-linejoin:round;stroke-dasharray:none"
       d="m 101.56744,127.94848 c 0.87105,1.40717 1.67088,2.82198 1.90917,4.29695 1.89729,-0.83686 3.75422,-1.75445 5.5371,-2.82013 -0.47506,-1.02138 -1.21448,-1.87579 -2.12471,-2.62233"
       id="path24"
       sodipodi:nodetypes="cccc" /><path
       style="fill:none;stroke:#000000;stroke-width:0.264999;stroke-linecap:round;stroke-linejoin:round;stroke-dasharray:none"
       d="m 89.517288,129.1386 c -3.322982,0.63267 -5.950564,2.06613 -9.143848,4.64427 0.828211,2.62613 2.153567,4.75279 4.328735,6.60923"
       id="path25"
       sodipodi:nodetypes="ccc" /><path
       style="fill:none;stroke:#000000;stroke-width:0.264999;stroke-linecap:round;stroke-linejoin:round;stroke-dasharray:none"
       d="m 109.01371,129.4253 c 3.12969,1.79529 5.66955,3.59057 7.95944,5.38586 -1.09016,2.29465 -2.84666,3.79032 -4.84344,5.5669"
       id="path26"
       sodipodi:nodetypes="ccc" /><path
       style="fill:none;stroke:#000000;stroke-width:0.264999;stroke-linecap:round;stroke-linejoin:round;stroke-dasharray:none"
       d="m 105,135.74987 v 1.34587"
       id="path27" /><path
       style="fill:none;stroke:#000000;stroke-width:0.264999;stroke-linecap:round;stroke-linejoin:round;stroke-dasharray:none"
       d="m 106.92951,134.81116 0.12233,1.98176"
       id="path28" /><path
       style="fill:none;stroke:#000000;stroke-width:0.264999;stroke-linecap:round;stroke-linejoin:round;stroke-dasharray:none"
       d="m 103.42761,137.22824 c 1.60355,0.0907 3.17046,-0.0568 4.64488,-0.80544"
       id="path29"
       sodipodi:nodetypes="cc" /><path
       style="fill:none;stroke:#000000;stroke-width:0.264999;stroke-linecap:round;stroke-linejoin:round;stroke-dasharray:none"
       d="m 103.42761,137.22824 c -1.69111,7.81361 6.4666,10.48973 4.64488,-0.80544"
       id="path30"
       sodipodi:nodetypes="cc" /><path
       style="fill:none;stroke:#000000;stroke-width:0.264999;stroke-linecap:round;stroke-linejoin:round;stroke-dasharray:none"
       d="m 80.786858,135.17734 c -2.237125,1.47792 -4.462667,2.96316 -5.496034,5.20135 1.136155,4.11305 3.559203,6.93922 5.593311,10.15432 -3.055123,-1.60679 -0.470477,1.5508 1.709414,2.37412"
       id="path31"
       sodipodi:nodetypes="cccc" /><path
       style="fill:none;stroke:#000000;stroke-width:0.264999;stroke-linecap:round;stroke-linejoin:round;stroke-dasharray:none"
       d="m 82.817051,138.46186 c -1.469679,1.15189 -3.292086,2.2925 -3.440679,3.48663 0.950266,1.76603 1.998387,3.42332 3.526219,4.54761"
       id="path32"
       sodipodi:nodetypes="ccc" /><path
       style="fill:none;stroke:#000000;stroke-width:0.264999;stroke-linecap:round;stroke-linejoin:round;stroke-dasharray:none"
       d="m 115.83356,136.65509 c 2.15777,1.59154 4.09112,2.99596 5.00745,5.28456 -1.34717,4.04884 -3.91303,6.74603 -6.11055,9.85173 3.13407,-1.44678 0.38971,1.57303 -1.82981,2.28261"
       id="path31-3"
       sodipodi:nodetypes="cccc" /><path
       style="fill:none;stroke:#000000;stroke-width:0.264999;stroke-linecap:round;stroke-linejoin:round;stroke-dasharray:none"
       d="m 113.47424,139.15058 c 1.40819,1.2263 3.11887,2.94544 3.20556,4.14566 -1.04025,1.71456 -1.62234,2.95462 -3.20623,3.99846"
       id="path32-0"
       sodipodi:nodetypes="ccc" /><path
       style="fill:none;stroke:#000000;stroke-width:0.264999;stroke-linecap:round;stroke-linejoin:round;stroke-dasharray:none"
       d="m 87.307767,134.59775 c -15.212218,32.19575 11.546691,25.3211 11.129274,23.55576"
       id="path33"
       sodipodi:nodetypes="cc" /><path
       style="fill:none;stroke:#000000;stroke-width:0.264999;stroke-linecap:round;stroke-linejoin:round;stroke-dasharray:none"
       d="m 97.967857,145.16818 -0.4165,12.39828 c 12.276963,5.97375 19.109933,-1.41271 14.578353,-17.1884 -0.3836,-1.33541 -0.83823,-2.66094 -1.31903,-3.95526"
       id="path34"
       sodipodi:nodetypes="ccsc" /><path
       style="fill:none;stroke:#808080;stroke-width:0.264999;stroke-linecap:round;stroke-linejoin:round;stroke-dasharray:none"
       d="m 86.518929,158.70332 c -0.791789,13.99498 -0.606727,28.38071 -0.819685,42.60722 3.906538,0.56511 7.813075,0.71445 11.719613,0.63229 1.348775,-12.46977 0.581849,-24.30483 0.780222,-36.42948"
       id="path35"
       sodipodi:nodetypes="cccc" /><path
       style="fill:none;stroke:#808080;stroke-width:0.264999;stroke-linecap:round;stroke-linejoin:round;stroke-dasharray:none"
       d="m 97.418855,201.94283 c 3.664695,0.49082 7.329395,0.57033 10.994095,0.15343 l 0.68092,-43.52544"
       id="path36"
       sodipodi:nodetypes="ccc" /><path
       style="fill:none;stroke:#000000;stroke-width:0.264999;stroke-linecap:round;stroke-linejoin:round;stroke-dasharray:none"
       d="m 87.791045,201.57445 c -5.047662,1.55866 -14.41606,2.74485 -14.41606,4.91599 0.356823,3.38959 9.065549,0.85115 13.759066,1.21593"
       id="path37"
       sodipodi:nodetypes="ccc" /><path
       style="fill:none;stroke:#000000;stroke-width:0.264999;stroke-linecap:round;stroke-linejoin:round;stroke-dasharray:none"
       d="m 89.663192,201.74839 c -0.125693,0.1346 -0.678257,0.63238 -0.243178,1.04559 1.28101,0.43141 2.457101,0.32852 3.647811,0.0973 0.663897,-0.36028 0.326383,-0.77633 0.364272,-0.95221"
       id="path44"
       sodipodi:nodetypes="cccc" /><path
       style="fill:none;stroke:#000000;stroke-width:0.264999;stroke-linecap:round;stroke-linejoin:round;stroke-dasharray:none"
       d="m 87.134051,207.70637 0.09727,0.66877 c 2.961986,0.13844 5.935525,0.30477 8.48724,-0.54718 -0.181139,-1.97346 0.225222,-4.03873 -0.887952,-5.86656"
       id="path45"
       sodipodi:nodetypes="cccc" /><path
       style="fill:none;stroke:#000000;stroke-width:0.264999;stroke-linecap:round;stroke-linejoin:round;stroke-dasharray:none"
       d="m 100.94123,202.28513 c -0.1257,0.1346 -0.69474,0.89933 -0.25966,1.31254 1.28101,0.43141 2.4571,0.32852 3.64781,0.0973 0.6639,-0.36028 0.0467,-1.09951 0.0846,-1.27539"
       id="path44-3"
       sodipodi:nodetypes="cccc" /><path
       style="fill:#000000;stroke:#000000;stroke-width:0.264999;stroke-linecap:round;stroke-linejoin:round;stroke-dasharray:none"
       d="m 105.99606,202.30014 c 5.04766,1.55866 13.80839,1.87042 14.65408,4.7122 0.004,2.13061 -9.06554,0.85115 -13.75906,1.21593"
       id="path37-3"
       sodipodi:nodetypes="ccc" /><path
       style="fill:#000000;stroke:#000000;stroke-width:0.264999;stroke-linecap:round;stroke-linejoin:round;stroke-dasharray:none"
       d="m 106.89108,208.22827 -0.0973,0.66877 c -2.96199,0.13844 -5.93552,0.30477 -8.487235,-0.54718 0.18113,-1.97346 -0.112505,-4.36312 1.000675,-6.19095"
       id="path45-5"
       sodipodi:nodetypes="cccc" /><path
       style="fill:#ffe7bf;fill-opacity:1;stroke:#000000;stroke-width:0.26038;stroke-linecap:round;stroke-linejoin:round;stroke-dasharray:none"
       d="m 310.22719,576.25584 c -0.8839,-0.47643 -2.40473,-1.46068 -3.37961,-2.18722 -2.44276,-1.82046 -5.80206,-5.33523 -5.80206,-6.07057 0,-0.27719 1.80037,0.2801 3.21095,0.99393 1.31026,0.66305 1.98846,0.64773 1.98846,-0.0449 0,-0.22222 -2.66516,-4.40816 -5.92258,-9.30209 -5.82028,-8.74437 -8.32392,-12.8311 -10.3884,-16.95713 -1.25125,-2.50073 -3.31914,-7.61638 -4.11227,-10.17316 l -0.57516,-1.8541 0.72795,-1.33117 c 2.75,-5.02876 7.3551,-9.47698 15.69661,-15.16189 l 3.61522,-2.46385 1.23183,2.51896 c 1.34677,2.75399 3.46493,6.28081 4.73615,7.88585 l 0.80986,1.02253 -0.65672,0.54947 c -0.36119,0.30221 -2.05072,1.62406 -3.7545,2.93744 -5.2156,4.0205 -7.79493,6.93456 -8.09085,9.14083 -0.1174,0.87524 0.0204,1.3342 0.84575,2.81746 3.04077,5.46449 6.11764,9.67282 9.38641,12.83808 1.26501,1.22495 2.55103,2.39728 2.85781,2.60516 0.546,0.36998 0.55012,0.42183 0.19479,2.45227 -0.84051,4.80291 -1.20026,9.80424 -1.06548,14.81284 0.0731,2.71669 0.21517,5.14416 0.31572,5.39438 0.25456,0.63355 -0.0283,0.56956 -1.86988,-0.42311 z"
       id="path46"
       transform="scale(0.26458333)" /><path
       style="fill:#ffe7bf;fill-opacity:1;stroke:#000000;stroke-width:0.26038;stroke-linecap:round;stroke-linejoin:round;stroke-dasharray:none"
       d="m 428.06356,578.9716 c 1.19117,-4.84286 1.49783,-7.83184 1.54679,-15.07639 l 0.0464,-6.86942 1.53183,-1.21078 c 2.98379,-2.35842 5.80562,-6.02984 9.31751,-12.1228 1.19013,-2.06482 1.21201,-2.14233 0.9172,-3.24962 -0.82746,-3.10804 -3.99728,-7.42033 -8.81233,-11.9885 l -2.67209,-2.53509 1.91071,-1.78576 c 1.05089,-0.98216 2.84051,-2.85378 3.97693,-4.15914 1.13643,-1.30536 2.1483,-2.37338 2.24861,-2.37338 0.30722,0 5.9341,4.37306 8.62008,6.69931 3.92714,3.40116 7.09652,7.34875 8.72972,10.87317 l 0.60704,1.30999 -0.96191,2.58239 c -1.27221,3.41545 -4.06454,8.89916 -6.55933,12.88153 -2.34335,3.74064 -4.84377,7.24421 -10.83215,15.17794 -4.06399,5.38418 -4.87314,6.67093 -4.45675,7.08732 0.0956,0.0957 1.07484,-0.14492 2.17598,-0.53459 2.48007,-0.87765 3.04356,-0.91511 2.64803,-0.17604 -0.47056,0.87925 -3.13533,3.36932 -5.06545,4.73337 -1.47196,1.04026 -5.03663,3.05831 -5.40217,3.05831 -0.0472,0 0.17123,-1.04482 0.48532,-2.32182 z"
       id="path47"
       transform="scale(0.26458333)" /><path
       style="fill:#ffe7bf;fill-opacity:1;stroke:#000000;stroke-width:0.26038;stroke-linecap:round;stroke-linejoin:round;stroke-dasharray:none"
       d="m 371.1075,482.75891 c -8.44337,-0.57291 -19.03486,-2.02557 -26.60379,-3.64881 l -1.34229,-0.28787 0.13937,-0.95343 c 0.0767,-0.52438 1.41575,-12.75323 2.97577,-27.17522 1.56002,-14.42199 2.87173,-26.24659 2.91492,-26.27688 0.0746,-0.0523 12.48561,0.54246 12.62208,0.60489 0.0358,0.0163 0.065,0.36197 0.065,0.76805 0,1.32009 1.01299,4.74074 1.82336,6.15712 0.82082,1.43465 2.08153,2.70396 3.32355,3.34623 3.09501,1.60049 6.73341,-0.15525 8.65188,-4.17504 l 0.8041,-1.68484 0.76261,1.61254 c 0.41944,0.88689 1.11388,2.05605 1.54321,2.59812 0.83983,1.06037 3.07356,2.3263 4.10477,2.3263 3.74493,0 6.73457,-4.08665 7.46473,-10.20383 l 0.17843,-1.49483 h 4.90948 c 3.3719,0 4.90948,0.0888 4.90948,0.28355 0,0.70453 2.85632,52.33233 2.99846,54.19694 l 0.15981,2.0965 -3.5939,0.57674 c -1.97665,0.3172 -5.23172,0.75203 -7.23349,0.96628 -4.40076,0.47102 -16.91159,0.68409 -21.57753,0.36749 z m 7.46808,-27.6707 c 2.40413,-0.50949 3.84845,-1.19704 5.27305,-2.51019 1.63995,-1.51165 2.26319,-2.81624 2.40741,-5.03928 0.0959,-1.4777 -0.007,-2.19217 -0.54785,-3.80076 -0.66737,-1.98527 -1.73705,-4.02777 -2.9537,-5.63991 -0.61286,-0.81208 -0.67767,-0.83687 -1.1264,-0.43077 -0.45823,0.41469 -0.44295,0.47707 0.40621,1.65904 1.61378,2.24627 2.77953,5.06172 2.92236,7.05789 0.16708,2.33516 -0.35075,3.73698 -1.91208,5.17616 -4.85263,4.473 -15.01985,2.80911 -16.62754,-2.72114 -0.68713,-2.36363 -0.032,-4.74557 2.24816,-8.17357 1.17603,-1.76807 1.25049,-1.96841 0.86966,-2.33973 -0.37881,-0.36936 -0.4794,-0.3315 -1.11174,0.41852 -3.183,3.77536 -4.30985,8.60617 -2.7416,11.75324 1.83051,3.67335 7.57366,5.71801 12.89406,4.5905 z"
       id="path48"
       transform="scale(0.26458333)" /><path
       style="fill:#ffe7bf;fill-opacity:1;stroke:#000000;stroke-width:0.26038;stroke-linecap:round;stroke-linejoin:round;stroke-dasharray:none"
       d="m 354.72478,423.38383 -5.46396,-0.28229 2.25832,-20.79696 c 1.24208,-11.43832 2.20508,-20.85021 2.13999,-20.91529 -0.0651,-0.0651 -1.46208,-0.0871 -3.10442,-0.0489 -3.09814,0.0721 -5.44595,-0.3529 -6.064,-1.0976 -0.43231,-0.5209 1.32334,-2.02608 3.25045,-2.78673 1.28959,-0.50902 2.01704,-0.60547 4.64848,-0.61634 3.68664,-0.0152 5.01181,0.44483 5.448,1.89138 0.40278,1.33573 1.05082,1.30675 2.29126,-0.10246 1.47295,-1.67336 2.96565,-2.7117 3.89827,-2.7117 0.6089,0 1.19864,0.41639 2.80827,1.98278 l 2.0375,1.98279 1.24727,-1.10802 c 3.40199,-3.02222 6.83412,-3.07639 8.65104,-0.13655 0.31224,0.50522 0.68112,0.91858 0.81974,0.91858 0.13861,0 0.62626,-0.40501 1.08367,-0.90001 1.05319,-1.13977 2.69085,-1.86022 5.0662,-2.22877 3.18474,-0.49413 5.548,0.28732 6.29059,2.08009 0.23432,0.5657 0.50156,0.78872 0.94509,0.78872 0.34011,0 0.61838,-0.11461 0.61838,-0.25469 0,-0.48005 2.06968,-1.31048 4.02298,-1.61415 2.34168,-0.36405 5.31258,-0.003 6.35527,0.77246 1.65664,1.23198 0.48196,2.57878 -2.95611,3.38924 -1.2184,0.28722 -2.38732,0.69426 -2.5976,0.90454 -0.33646,0.33646 -0.26043,2.60828 0.63368,18.93513 0.55881,10.20405 1.05836,19.22548 1.11011,20.04764 l 0.0941,1.49483 h -4.83295 -4.83295 l -0.41822,-2.45837 c -1.48155,-8.70878 -7.80883,-11.84015 -11.94923,-5.91369 -0.52062,0.7452 -1.16112,2.0323 -1.42332,2.86023 l -0.47675,1.50532 -0.69023,-1.45948 c -0.92763,-1.96148 -2.06737,-3.20237 -3.67892,-4.00544 -2.23666,-1.11458 -4.31064,-0.81024 -6.27765,0.9212 -1.97818,1.74126 -3.32923,4.58817 -3.68979,7.77505 -0.17453,1.54263 -0.18243,1.55475 -0.98726,1.51241 -0.44623,-0.0235 -3.27011,-0.16971 -6.27529,-0.32496 z"
       id="path49"
       transform="scale(0.26458333)" /><path
       style="fill:#ffffff;fill-opacity:1;stroke:#000000;stroke-width:0.26038;stroke-linecap:round;stroke-linejoin:round;stroke-dasharray:none"
       d="m 343.50529,603.90264 c -12.7083,-1.02315 -22.02164,-6.56806 -26.77038,-15.93835 -1.19537,-2.35871 -2.55843,-6.50895 -3.08742,-9.40055 -0.58196,-3.18116 -0.7886,-10.97882 -0.40094,-15.12972 1.28545,-13.7639 6.34647,-30.29566 15.33882,-50.10401 1.72464,-3.79903 2.05396,-4.72248 1.78131,-4.99502 -0.18396,-0.1839 -0.47154,-0.24962 -0.63907,-0.14604 -0.5411,0.33456 -5.95118,12.53509 -8.26586,18.64071 -0.54205,1.42984 -1.0639,2.6873 -1.15966,2.79435 -0.20062,0.22431 -5.14136,-4.69758 -6.85492,-6.82878 -1.99932,-2.48659 -4.3451,-6.25317 -5.90653,-9.48402 -1.48117,-3.06478 -2.85554,-6.56948 -2.85554,-7.28176 0,-0.41554 5.65265,-4.71631 9.48892,-7.21956 7.42855,-4.8473 14.92523,-8.08768 22.43527,-9.69745 2.15419,-0.46175 2.16056,-0.46154 4.02954,0.13513 3.74243,1.19477 9.01055,3.24636 14.46917,5.63479 3.06792,1.34237 5.77218,2.44068 6.00948,2.44068 0.29368,0 0.61772,-0.51878 1.01487,-1.62481 0.32088,-0.89365 0.94245,-2.26824 1.38125,-3.05465 1.05538,-1.89144 3.322,-5.26845 3.45013,-5.14032 0.0557,0.0557 -0.0168,0.83543 -0.16134,1.73262 -0.58234,3.616 0.75525,6.58134 3.88789,8.61916 0.54709,0.35589 0.64326,0.68401 0.83817,2.85967 0.78037,8.71109 -2.0037,17.07241 -8.1942,24.60938 l -1.32571,1.61406 -0.0743,-2.4505 c -0.10953,-3.6125 0.57716,-5.79226 3.21193,-10.19553 l 0.50196,-0.83889 -2.59844,-2.67071 c -7.42711,-7.63368 -12.50571,-12.67957 -12.76175,-12.67957 -0.34805,0 -3.17284,3.98368 -4.97725,7.0192 -2.50507,4.21422 -8.0202,15.79551 -7.81506,16.41094 0.049,0.14705 0.94914,0.64607 2.00027,1.10892 l 1.91115,0.84155 0.71886,1.97173 c 3.21678,8.82325 10.94423,16.07355 18.93699,17.76768 10.64659,2.25663 18.6532,-4.65305 21.10448,-18.2131 0.80535,-4.45504 1.15855,-13.88029 0.66733,-17.80796 -0.0805,-0.64343 -0.33762,-2.83178 -0.57144,-4.86301 l -0.42513,-3.69314 1.33458,-1.29993 c 1.7256,-1.68078 2.77372,-3.87885 3.02028,-6.33396 l 0.18738,-1.86586 1.04659,2.07375 c 1.27357,2.5235 2.36347,5.45689 2.78092,7.48467 0.17112,0.83126 0.46697,1.57119 0.65744,1.64428 0.64148,0.24615 12.14636,-5.27676 18.42614,-8.84546 1.41242,-0.80266 2.66761,-1.45938 2.78931,-1.45938 0.37919,0 8.73371,5.1446 13.21192,8.13572 6.31666,4.21907 15.87678,11.17865 15.87678,11.55799 0,0.0649 -0.41046,0.89909 -0.91213,1.85378 -2.11987,4.03412 -6.5242,9.10927 -13.10167,15.0972 l -2.96507,2.6993 -1.61851,-4.91868 c -2.64328,-8.03299 -3.21696,-9.46816 -3.78464,-9.46816 -0.73986,0 -0.64174,0.52257 0.9547,5.08493 6.12,17.48994 8.93652,32.4122 8.60859,45.60926 -0.3379,13.59813 -3.68862,22.90764 -10.61865,29.50246 -2.53331,2.41078 -4.43379,3.67383 -5.3477,3.55407 -0.40478,-0.053 -0.59155,0.056 -0.59155,0.34542 0,0.87427 -5.38295,2.72218 -9.54187,3.27563 -3.13828,0.41762 -9.61118,0.16647 -13.23685,-0.51361 -5.1842,-0.97242 -10.58429,-2.72017 -16.79868,-5.43693 l -2.79161,-1.22042 -0.003,-1.38031 c -0.004,-1.90539 1.2369,-39.2998 1.41909,-42.75588 0.12686,-2.40662 0.0896,-2.8232 -0.26478,-2.95918 -0.22683,-0.087 -0.52585,-0.0448 -0.66449,0.0938 -0.20305,0.20305 -1.77816,41.13969 -1.78984,46.51736 l -0.003,1.33559 1.68981,0.71818 c 0.92939,0.395 1.6898,0.79526 1.6898,0.88946 0,0.72438 -1.88238,1.96053 -4.6251,3.03727 -6.2152,2.43999 -16.07251,3.79179 -23.36706,3.20451 z m 59.19856,-59.29872 c 3.33,-0.99769 5.84798,-5.02212 6.87246,-10.98409 0.79178,-4.60777 0.18922,-18.15551 -0.82481,-18.54463 -0.19861,-0.0762 -1.02564,0.16208 -1.83783,0.52955 -1.72388,0.77994 -1.87019,0.68017 -1.87608,-1.27943 -0.002,-0.72909 -0.0801,-2.22649 -0.1732,-3.32756 -0.15564,-1.84112 -0.21307,-1.99568 -0.71492,-1.92401 -0.50846,0.0726 -0.54143,0.21984 -0.48316,2.1577 0.0344,1.14387 0.12768,2.8538 0.2073,3.79986 l 0.14477,1.7201 -1.7095,0.42941 c -0.94023,0.23617 -2.40383,0.50198 -3.25246,0.59068 l -1.54296,0.16127 -0.0745,-2.70073 c -0.069,-2.5026 -0.11263,-2.70074 -0.59442,-2.70074 -0.48302,0 -0.52517,0.19788 -0.59364,2.78625 l -0.0737,2.78624 -2.91595,0.0734 -2.91596,0.0734 -0.35416,1.55983 c -0.22114,0.97398 -0.36656,3.36614 -0.38718,6.36927 -0.029,4.21589 0.04,5.0982 0.55906,7.14918 2.01451,7.9606 7.41063,12.81205 12.54084,11.275 z"
       id="path50"
       transform="scale(0.26458333)" /><path
       style="fill:#ffffff;fill-opacity:1;stroke:#000000;stroke-width:0.26038;stroke-linecap:round;stroke-linejoin:round;stroke-dasharray:none"
       d="m 341.141,766.62323 c -3.0645,-0.51042 -3.80826,-1.29106 -2.58501,-2.71318 l 0.5947,-0.69138 6.67546,0.33593 c 5.37436,0.27045 6.7037,0.40952 6.82035,0.7135 0.23857,0.62173 -0.11947,1.32703 -0.87095,1.71564 -1.56742,0.81054 -7.47484,1.16577 -10.63455,0.63949 z"
       id="path54"
       transform="scale(0.26458333)" /><path
       style="fill:#ffffff;fill-opacity:1;stroke:#000000;stroke-width:0.26038;stroke-linecap:round;stroke-linejoin:round;stroke-dasharray:none"
       d="m 383.63243,769.63565 c -2.5773,-0.48849 -3.03715,-0.73539 -3.03174,-1.62776 0.006,-0.97535 1.07573,-2.79069 1.6288,-2.76387 0.24568,0.0119 2.99728,0.0412 6.11467,0.065 l 5.66799,0.0433 0.47431,1.31901 c 0.69444,1.93118 0.38852,2.43362 -1.71662,2.81939 -2.75945,0.50566 -6.88856,0.57115 -9.13741,0.14491 z"
       id="path55"
       transform="scale(0.26458333)" /><path
       style="fill:#ffffff;fill-opacity:1;stroke:#000000;stroke-width:0.368232;stroke-linecap:round;stroke-linejoin:round;stroke-dasharray:none"
       d="m 381.21905,433.73912 c -0.81733,-0.54122 -1.69413,-1.71399 -2.53603,-3.39208 -1.23829,-2.4682 -1.28671,-2.71759 -1.28471,-6.61776 0.002,-3.69276 0.0968,-4.25846 1.06815,-6.36611 1.72646,-3.74611 3.97465,-5.1526 6.17864,-3.8654 5.62813,3.28701 5.74996,16.95092 0.1814,20.34624 -1.51453,0.92346 -2.07927,0.90704 -3.60745,-0.10489 z"
       id="path56"
       transform="scale(0.26458333)" /><path
       style="fill:#ffffff;fill-opacity:1;stroke:#000000;stroke-width:0.368232;stroke-linecap:round;stroke-linejoin:round;stroke-dasharray:none"
       d="m 367.65342,433.90154 c -5.22527,-2.83462 -5.86739,-13.92124 -1.05795,-18.26628 1.13027,-1.02113 1.73367,-1.28986 2.89622,-1.28986 1.16254,0 1.76595,0.26873 2.89621,1.28986 2.25499,2.03725 3.142,4.46367 3.15728,8.63678 0.0116,3.16336 -0.0955,3.72124 -1.13555,5.9162 -1.76351,3.72177 -4.2358,5.08058 -6.75621,3.7133 z"
       id="path57"
       transform="scale(0.26458333)" /><path
       style="fill:#000000;stroke:#000000;stroke-width:0.300492;stroke-linecap:round;stroke-linejoin:round"
       d="m 393.78032,778.76098 -9.76633,-7.816 0.50552,0.0594 c 1.33672,0.15698 4.38339,0.16615 5.79055,0.0175 2.05903,-0.2176 4.12608,-0.58276 4.45547,-0.78709 1.3378,-0.82989 1.58061,-2.19636 0.7501,-4.2213 -0.13307,-0.32447 -0.22923,-0.60265 -0.21369,-0.6182 0.0425,-0.0425 5.30609,-0.24438 5.33913,-0.2048 0.0157,0.0188 0.74939,4.81929 1.63038,10.6677 1.47692,9.80452 1.58907,10.63681 1.43849,10.67619 -0.11313,0.0296 -3.16379,-2.3586 -9.92962,-7.77331 z"
       id="path61"
       transform="scale(0.26458333)" /><path
       style="fill:#000000;stroke:#000000;stroke-width:0.300492;stroke-linecap:round;stroke-linejoin:round"
       d="m 377.86708,766.01655 c -0.85318,-0.68403 -1.50311,-1.25974 -1.44429,-1.27935 0.0588,-0.0196 0.59144,0.009 1.18359,0.063 0.59215,0.0542 1.4762,0.12563 1.96457,0.15863 l 0.88792,0.06 -0.27202,0.44209 c -0.14961,0.24314 -0.38373,0.74746 -0.52027,1.12071 l -0.24826,0.67862 z"
       id="path62"
       transform="scale(0.26458333)" /><path
       style="fill:#000000;stroke:#000000;stroke-width:0.300492;stroke-linecap:round;stroke-linejoin:round"
       d="m 337.82753,787.35951 c -3.80555,-0.14168 -7.59372,-0.33059 -7.63951,-0.38098 -0.0312,-0.0343 -0.10627,-0.45528 -0.16691,-0.93553 -0.15118,-1.19723 -0.24208,-1.45551 -0.54186,-1.53959 -0.13509,-0.0379 -2.1689,-0.0673 -4.51959,-0.0653 -5.13966,0.004 -6.27537,0.0794 -17.32567,1.14614 -7.34448,0.70898 -9.59803,0.87919 -13.35685,1.00888 -5.69714,0.19656 -9.81407,-0.26134 -12.46065,-1.38594 -2.01881,-0.85784 -3.3373,-2.23348 -3.77985,-3.94368 -0.31118,-1.20257 -0.044,-2.02142 1.00721,-3.08726 2.93054,-2.97123 10.73865,-5.67556 27.53314,-9.53611 2.09792,-0.48224 6.08926,-1.40007 8.86964,-2.03962 6.15584,-1.41597 10.78956,-2.56913 14.02029,-3.48915 l 2.43038,-0.69211 2.48257,0.23171 c 2.72411,0.25424 3.26383,0.31522 3.26383,0.36877 0,0.0196 -0.11993,0.21357 -0.26652,0.43095 -0.40281,0.59735 -0.59401,1.27449 -0.5371,1.90214 0.0548,0.60466 0.2075,0.94428 0.6061,1.34831 0.34145,0.34611 1.69488,0.75575 3.69023,1.11693 1.21043,0.21909 1.55629,0.24183 3.76845,0.24775 2.52115,0.007 3.04259,-0.0361 5.60671,-0.46038 1.52307,-0.25204 1.76059,-0.34751 2.45808,-0.98796 0.73005,-0.67035 1.00648,-1.42496 0.86043,-2.34885 l -0.0741,-0.46865 h 1.21281 c 0.66704,0 1.65639,0.0271 2.19856,0.0603 l 0.98576,0.0603 0.44065,0.88179 c 1.22774,2.45688 1.90273,5.05565 2.21046,8.51061 0.054,0.60663 0.13665,3.16389 0.1836,5.68281 0.0469,2.51892 0.11334,4.92484 0.14756,5.34648 l 0.0622,0.76662 -0.67841,0.2031 c -3.68793,1.10408 -7.85777,1.75313 -12.94883,2.01555 -1.57993,0.0814 -7.86038,0.10203 -9.74282,0.032 z"
       id="path63"
       transform="scale(0.26458333)" /><path
       style="fill:#ff0000;stroke:#000000;stroke-width:0.424959;stroke-linecap:round;stroke-linejoin:round"
       d="m 385.66582,764.1761 c -2.95624,-0.10264 -3.87528,-0.15736 -7.73411,-0.46047 -2.95824,-0.23237 -8.93594,-0.88665 -9.03859,-0.98929 -0.0388,-0.0388 0.0476,-1.2333 0.19207,-2.65435 1.2554,-12.34804 2.00405,-24.7488 2.50234,-41.4493 0.18115,-6.07119 0.21203,-32.30962 0.0818,-69.47331 l -0.084,-23.97852 -0.28732,-0.1282 c -0.23428,-0.10454 -0.33237,-0.0726 -0.53134,0.17314 -0.23181,0.28627 -0.24534,0.68288 -0.27029,7.92358 -0.0357,10.36204 0.015,23.16347 0.1704,43.04317 0.29695,37.97764 -0.36499,59.31833 -2.55418,82.34557 -0.17672,1.85878 -0.35436,3.57789 -0.39476,3.82022 l -0.0735,0.44061 -8.60221,-0.075 c -4.73122,-0.0413 -9.83058,-0.13779 -11.33191,-0.21448 -8.0183,-0.40958 -15.04584,-1.02381 -21.17541,-1.8508 l -2.06759,-0.27896 0.0862,-6.18518 c 0.083,-5.95522 0.19178,-18.63614 0.47471,-55.31954 0.29782,-38.61351 0.7877,-61.38758 1.82162,-84.6853 0.14119,-3.18139 0.28919,-6.54475 0.32891,-7.47414 0.0397,-0.9294 0.10159,-1.88245 0.13751,-2.1179 l 0.0653,-0.42809 5.09497,0.0472 c 4.47605,0.0414 5.26865,0.0798 6.5248,0.31624 2.8167,0.53005 4.12224,0.62288 8.709,0.61931 4.58853,-0.004 6.09039,-0.11425 9.72655,-0.71671 1.49141,-0.2471 2.32765,-0.25473 27.90297,-0.25473 h 26.36548 l -0.0624,2.76218 c -0.0521,2.30625 -1.40633,88.95824 -2.21538,141.75312 -0.22215,14.49683 -0.22545,14.59556 -0.48893,14.65356 -0.1459,0.0321 -1.25966,0.14626 -2.47502,0.25365 -7.38922,0.65293 -13.69114,0.82953 -20.79762,0.58279 z"
       id="path64"
       transform="scale(0.26458333)" /><path
       style="fill:#ff0000;stroke:#000000;stroke-width:0.600983;stroke-linecap:round;stroke-linejoin:round"
       d="m 349.89457,535.3482 c -2.01394,-2.06639 -3.21625,-3.62108 -4.45841,-5.76513 l -0.49182,-0.84889 9.37927,-7.51522 c 5.15859,-4.13338 9.46164,-7.54282 9.56232,-7.57653 0.10068,-0.0337 -0.18908,0.56812 -0.6439,1.33743 -1.76606,2.98716 -2.46361,5.29306 -2.61455,8.64299 l -0.10734,2.38221 -4.41074,5.15468 c -2.42591,2.83507 -4.5045,5.25757 -4.61909,5.38333 -0.16171,0.17748 -0.51887,-0.09 -1.59574,-1.19487 z"
       id="path65"
       transform="scale(0.26458333)" /><path
       style="fill:#ff0000;stroke:#000000;stroke-width:0.600983;stroke-linecap:round;stroke-linejoin:round"
       d="m 369.30785,535.37035 c -1.92098,-2.47873 -4.08347,-5.2683 -4.80552,-6.19903 l -1.31281,-1.69224 0.67116,-0.78708 0.67115,-0.78708 5.30028,6.03197 5.30028,6.03197 -1.03662,0.96509 c -0.57013,0.5308 -1.09479,0.96016 -1.16591,0.95414 -0.0711,-0.006 -1.70102,-2.03901 -3.62201,-4.51774 z"
       id="path66"
       transform="scale(0.26458333)" /><path
       style="fill:#ff0000;stroke:#000000;stroke-width:0.600983;stroke-linecap:round;stroke-linejoin:round"
       d="m 376.29211,517.53151 c -2.8303,-1.47511 -5.16949,-2.70136 -5.1982,-2.725 -0.0287,-0.0236 0.14822,-0.7364 0.39321,-1.58392 0.40071,-1.38626 0.81985,-3.31196 1.11915,-5.14183 l 0.1079,-0.65965 4.44964,0.99127 c 2.4473,0.5452 4.49343,1.03515 4.54695,1.08877 0.17574,0.17609 0.0791,10.36057 -0.1,10.53968 -0.10771,0.10771 -2.10915,-0.83656 -5.31868,-2.50932 z"
       id="path67"
       transform="scale(0.26458333)" /><path
       style="fill:#ff0000;stroke:#000000;stroke-width:0.600983;stroke-linecap:round;stroke-linejoin:round"
       d="m 375.37414,497.36155 c -3.08354,-0.18845 -3.3669,-0.23633 -4.16078,-0.70302 -1.1829,-0.69539 -2.45795,-2.17603 -2.90667,-3.37535 -0.36466,-0.97463 -0.53306,-3.50114 -0.27771,-4.16656 0.0763,-0.19878 0.72696,0.0539 2.75871,1.0711 3.15894,1.58162 7.48217,3.43298 10.28507,4.40444 1.11216,0.38547 2.04939,0.72066 2.08274,0.74488 0.15665,0.11375 -0.62586,1.0282 -1.38787,1.62187 -0.97495,0.75958 -0.76706,0.74649 -6.39349,0.40264 z"
       id="path68"
       transform="scale(0.26458333)" /><path
       style="fill:#000000;stroke:#000000;stroke-width:0.600983;stroke-linecap:round;stroke-linejoin:round"
       d="m 344.1169,431.80893 c 0.0906,-2.27658 0.30259,-3.44907 0.52077,-2.88049 0.14667,0.3822 -0.16575,3.65242 -0.42445,4.44302 -0.13114,0.40073 -0.15746,-0.0264 -0.0963,-1.56253 z"
       id="path69"
       transform="scale(0.26458333)" /><path
       style="fill:#000000;stroke:#000000;stroke-width:0.600983;stroke-linecap:round;stroke-linejoin:round"
       d="m 404.64027,434.12707 c -0.18156,-1.25917 -0.1619,-4.29857 0.0286,-4.41628 0.32423,-0.20039 0.50127,3.54072 0.22543,4.76363 -0.11584,0.51356 -0.13331,0.48968 -0.25399,-0.34735 z"
       id="path70"
       transform="scale(0.26458333)" /><path
       style="fill:#000000;stroke:#000000;stroke-width:0.600983;stroke-linecap:round;stroke-linejoin:round"
       d="m 384.84121,763.85911 c -3.9485,-0.14786 -15.34486,-1.18807 -15.57875,-1.42196 -0.0439,-0.044 0.1342,-2.42309 0.3959,-5.28696 0.87091,-9.5305 1.26264,-15.31439 1.89029,-27.90964 0.26633,-5.34471 0.3157,-12.62081 0.3737,-55.08101 0.0613,-44.83941 0.0421,-48.94758 -0.22996,-49.2196 -0.39298,-0.39298 -0.69481,-0.37438 -1.09468,0.0675 -0.29999,0.33149 -0.33734,0.93949 -0.41504,6.75564 -0.047,3.51525 -0.002,19.00647 0.0994,34.42494 0.2816,42.71561 -0.0345,60.24727 -1.44031,79.8727 -0.40073,5.59444 -1.22015,14.88476 -1.40017,15.87464 l -0.11221,0.61703 -8.1102,-0.11926 c -4.46061,-0.0656 -9.88872,-0.20168 -12.06247,-0.30242 -6.7641,-0.31348 -16.11903,-1.13467 -21.01371,-1.8446 l -1.43617,-0.20831 0.11052,-4.34305 c 0.0608,-2.38868 0.23158,-20.01888 0.37955,-39.17822 0.34801,-45.06208 0.60876,-62.99848 1.19052,-81.89479 0.33117,-10.75699 1.06576,-28.762 1.21041,-29.66769 l 0.0995,-0.62306 4.99614,0.13021 c 3.5864,0.0935 5.64451,0.23476 7.29397,0.50073 3.06525,0.49427 11.78923,0.52757 15.07379,0.0575 3.81495,-0.54592 7.16996,-0.61171 31.84798,-0.62454 l 24.403,-0.0127 -8.3e-4,2.43571 c -4.6e-4,1.33963 -0.53783,36.64125 -1.19416,78.44804 -0.65632,41.80679 -1.19491,76.30187 -1.19686,76.65574 -0.002,0.35387 -0.0708,0.74942 -0.15304,0.87902 -0.44625,0.70326 -15.37409,1.33865 -23.92616,1.01839 z"
       id="path71"
       transform="scale(0.26458333)" /><path
       style="fill:#000000;stroke:#000000;stroke-width:0.600983;stroke-linecap:round;stroke-linejoin:round"
       d="m 386.128,790.25761 c -1.76933,-0.0762 -4.28095,-0.27191 -5.58137,-0.43478 -4.06455,-0.50908 -9.04731,-1.70963 -9.24614,-2.22778 -0.15971,-0.41621 0.30259,-11.08487 0.5886,-13.58313 0.42986,-3.75484 1.37853,-7.06796 2.69734,-9.42018 l 0.5352,-0.95458 -0.60906,-0.0939 c -0.33497,-0.0516 -1.43627,-0.1829 -2.44732,-0.29168 -3.44636,-0.37077 -3.21696,-0.28454 -3.21696,-1.20918 0,-0.44338 0.16464,-2.52484 0.36587,-4.62547 1.04398,-10.89821 1.76682,-23.31413 2.20762,-37.91919 0.20374,-6.75053 0.24771,-66.092 0.0616,-83.14329 -0.10982,-10.06156 -0.15102,-11.16952 -0.41345,-11.11887 -0.26511,0.0512 -0.29175,4.07936 -0.29451,44.53967 -0.003,48.19467 -0.0765,52.82737 -1.10824,70.12726 -0.44129,7.39938 -1.56706,21.0858 -1.8485,22.47281 l -0.10257,0.50552 h -4.59358 -4.59358 l 0.40375,0.56702 c 0.93269,1.30984 1.97691,4.28953 2.47478,7.06179 0.44026,2.45148 0.86249,14.99452 0.5144,15.28117 -0.72143,0.59409 -6.81041,1.83598 -11.27245,2.29908 -3.65694,0.37957 -20.44022,0.2239 -21.11941,-0.19587 -0.11727,-0.0725 -0.292,-0.6159 -0.38831,-1.20763 -0.0963,-0.59173 -0.28047,-1.14981 -0.40925,-1.24018 -0.33194,-0.23294 -8.79202,-0.0227 -12.64245,0.31414 -1.76933,0.1548 -5.82271,0.52773 -9.00751,0.82874 -8.67126,0.81958 -10.46745,0.932 -14.95403,0.93597 -7.39477,0.007 -11.19197,-0.94769 -13.50551,-3.39391 -0.97614,-1.03212 -1.68804,-2.60756 -1.68804,-3.73564 0,-1.70965 1.77839,-3.64775 4.7458,-5.172 5.11798,-2.62893 11.25638,-4.43064 28.89449,-8.48099 12.54514,-2.88081 21.11584,-5.05016 20.88081,-5.28519 -0.0459,-0.0459 -1.63128,-0.28015 -3.52298,-0.52047 -1.89171,-0.24034 -3.47222,-0.46972 -3.51226,-0.50975 -0.04,-0.04 0.01,-8.41762 0.1109,-18.61686 0.10103,-10.19924 0.2315,-24.91367 0.28993,-32.69873 0.29279,-39.00566 0.69567,-62.8101 1.38291,-81.71097 0.35868,-9.86477 0.92019,-22.52507 1.01811,-22.95537 l 0.0994,-0.4366 5.36766,0.0966 c 4.19855,0.0756 5.728,0.17041 7.02209,0.43536 1.42175,0.29107 2.54645,0.3382 7.99647,0.33507 5.49582,-0.003 6.58729,-0.0509 8.18028,-0.35818 1.75482,-0.33845 3.06709,-0.35724 28.906,-0.41397 l 27.06772,-0.0594 -0.10164,3.81965 c -0.0559,2.10081 -0.59004,35.87443 -1.18696,75.0525 -1.13518,74.50637 -1.23453,79.95566 -1.46441,80.32761 -0.0919,0.14874 -1.22196,0.31971 -3.24299,0.49064 -1.70605,0.1443 -3.55688,0.31233 -4.11295,0.37342 -1.18914,0.13063 -1.37581,0.0547 2.84931,1.15878 3.84259,1.00411 7.45166,1.75403 17.73928,3.68604 15.40185,2.89245 20.93571,4.25158 25.84183,6.34682 4.27159,1.82426 6.93785,3.93167 7.90608,6.24895 1.12229,2.68602 -1.64084,4.65413 -7.73643,5.51047 -3.21275,0.45134 -10.33112,0.62998 -17.92311,0.44978 -14.49915,-0.34413 -20.04799,-0.41118 -23.01734,-0.2781 l -3.07215,0.13768 -0.12006,1.0612 c -0.066,0.58365 -0.17927,1.15699 -0.25164,1.27409 -0.24804,0.40133 -12.53279,0.7828 -17.84104,0.55401 z m -48.6656,-2.8734 c -0.22609,-0.0436 -0.6397,-0.0448 -0.91913,-0.003 -0.27943,0.0422 -0.0944,0.078 0.41108,0.0793 0.50553,10e-4 0.73415,-0.0332 0.50805,-0.0768 z m 10.38369,-0.002 c -0.27804,-0.0421 -0.73301,-0.0421 -1.01105,0 -0.27804,0.0421 -0.0505,0.0766 0.50552,0.0766 0.55608,0 0.78356,-0.0345 0.50553,-0.0766 z m -14.70614,-0.18383 c -0.27804,-0.0421 -0.73301,-0.0421 -1.01105,0 -0.27804,0.0421 -0.0505,0.0766 0.50553,0.0766 0.55607,0 0.78356,-0.0345 0.50552,-0.0766 z m 17.55895,0.0111 c -0.12446,-0.0504 -0.37262,-0.0534 -0.55148,-0.007 -0.17886,0.0466 -0.077,0.0878 0.22628,0.0915 0.30332,0.004 0.44965,-0.0344 0.3252,-0.0847 z m 1.73902,-0.17431 c -0.0611,-0.0611 -0.21963,-0.0676 -0.35233,-0.0145 -0.14664,0.0587 -0.10309,0.10224 0.11106,0.11106 0.19378,0.008 0.30236,-0.0355 0.24127,-0.0965 z m 1.47062,-0.18383 c -0.0611,-0.0611 -0.21964,-0.0676 -0.35234,-0.0145 -0.14664,0.0587 -0.10308,0.10224 0.11107,0.11106 0.19378,0.008 0.30235,-0.0355 0.24127,-0.0965 z m -63.5083,-0.20574 c -0.32859,-0.0408 -0.86628,-0.0408 -1.19487,0 -0.32859,0.0408 -0.0598,0.0741 0.59743,0.0741 0.65718,0 0.92603,-0.0334 0.59744,-0.0741 z m 4.50375,-9.4e-4 c -0.37914,-0.0397 -0.99955,-0.0397 -1.3787,0 -0.37914,0.0397 -0.0689,0.0721 0.68935,0.0721 0.75829,0 1.0685,-0.0325 0.68935,-0.0721 z m 108.99256,-0.61555 0.0293,-0.62923 -0.12119,0.62535 -0.12118,0.62535 -1.83827,-1.43508 c -1.01105,-0.7893 -2.21051,-1.72781 -2.66549,-2.08558 -0.45497,-0.35777 -0.70313,-0.51638 -0.55148,-0.35247 0.60532,0.65422 4.88334,3.98318 5.05524,3.93376 0.1011,-0.0291 0.197,-0.33602 0.2131,-0.6821 z M 287.27519,786.473 c -0.12638,-0.051 -0.33319,-0.051 -0.45957,0 -0.12638,0.051 -0.023,0.0927 0.22978,0.0927 0.25276,0 0.35617,-0.0417 0.22979,-0.0927 z m 11.12151,-0.005 c -0.17693,-0.0462 -0.46646,-0.0462 -0.64339,0 -0.17693,0.0462 -0.0322,0.0841 0.3217,0.0841 0.35386,0 0.49863,-0.0378 0.32169,-0.0841 z m -12.50404,-0.16817 c -0.0611,-0.0611 -0.21964,-0.0676 -0.35234,-0.0145 -0.14664,0.0587 -0.10308,0.10224 0.11106,0.11106 0.19379,0.008 0.30236,-0.0355 0.24128,-0.0965 z m 15.17303,-0.01 c -0.12446,-0.0503 -0.37262,-0.0534 -0.55148,-0.007 -0.17886,0.0466 -0.077,0.0878 0.22628,0.0916 0.30332,0.004 0.44965,-0.0344 0.3252,-0.0847 z m 2.01859,-0.18499 c -0.12638,-0.051 -0.33318,-0.051 -0.45956,0 -0.12638,0.051 -0.023,0.0927 0.22978,0.0927 0.25276,0 0.35616,-0.0417 0.22978,-0.0927 z m 2.0221,-0.18383 c -0.12638,-0.051 -0.33319,-0.051 -0.45957,0 -0.12638,0.051 -0.023,0.0927 0.22978,0.0927 0.25277,0 0.35617,-0.0417 0.22979,-0.0927 z m 1.83826,-0.18382 c -0.12638,-0.051 -0.33318,-0.051 -0.45956,0 -0.12638,0.051 -0.023,0.0927 0.22978,0.0927 0.25276,0 0.35616,-0.0417 0.22978,-0.0927 z m 2.0221,-0.18383 c -0.12638,-0.051 -0.33319,-0.051 -0.45957,0 -0.12638,0.051 -0.023,0.0927 0.22978,0.0927 0.25277,0 0.35617,-0.0417 0.22979,-0.0927 z m 1.92635,-0.17314 c -0.0611,-0.0611 -0.21964,-0.0676 -0.35234,-0.0145 -0.14664,0.0587 -0.10308,0.10225 0.11107,0.11107 0.19378,0.008 0.30235,-0.0355 0.24127,-0.0965 z m 1.83827,-0.18383 c -0.0611,-0.0611 -0.21964,-0.0676 -0.35234,-0.0145 -0.14664,0.0587 -0.10309,0.10224 0.11106,0.11106 0.19379,0.008 0.30236,-0.0355 0.24128,-0.0965 z m 2.02209,-0.18383 c -0.0611,-0.0611 -0.21963,-0.0676 -0.35234,-0.0145 -0.14664,0.0587 -0.10308,0.10224 0.11107,0.11106 0.19378,0.008 0.30235,-0.0355 0.24127,-0.0965 z m 2.30166,-0.19451 c -0.12638,-0.051 -0.33318,-0.051 -0.45956,0 -0.12638,0.051 -0.023,0.0927 0.22978,0.0927 0.25276,0 0.35616,-0.0417 0.22978,-0.0927 z m 86.662,-0.28037 c -0.0587,-0.14665 -0.10224,-0.10309 -0.11106,0.11106 -0.008,0.19378 0.0355,0.30236 0.0966,0.24127 0.0611,-0.0611 0.0676,-0.21963 0.0145,-0.35233 z m -123.6044,-0.25134 c -0.32487,-0.25606 -0.85045,-0.77215 -1.16796,-1.14688 -0.31751,-0.37473 -0.49139,-0.5107 -0.38639,-0.30215 0.21144,0.41994 1.77896,1.91984 2.00304,1.91662 0.0781,-10e-4 -0.12382,-0.21154 -0.44869,-0.46759 z m 39.51947,0.34905 c -0.12445,-0.0503 -0.37262,-0.0534 -0.55148,-0.007 -0.17885,0.0466 -0.077,0.0878 0.22629,0.0915 0.30331,0.004 0.44965,-0.0344 0.32519,-0.0847 z m 41.6221,-0.93642 c -0.0462,-0.17693 -0.0841,-0.0322 -0.0841,0.32169 0,0.35387 0.0378,0.49863 0.0841,0.3217 0.0462,-0.17693 0.0462,-0.46646 0,-0.64339 z m 42.279,-0.44808 c -0.0587,-0.14664 -0.10224,-0.10309 -0.11106,0.11106 -0.008,0.19379 0.0355,0.30236 0.0966,0.24128 0.0611,-0.0611 0.0676,-0.21964 0.0145,-0.35234 z m -5.27272,-0.76426 c 0,-0.0349 -0.18612,-0.22101 -0.41361,-0.41361 l -0.41361,-0.35019 0.35019,0.41361 c 0.32909,0.38869 0.47703,0.4973 0.47703,0.35019 z m 5.0889,-0.3387 c -0.0587,-0.14664 -0.10225,-0.10309 -0.11107,0.11106 -0.008,0.19379 0.0355,0.30236 0.0966,0.24128 0.0611,-0.0611 0.0676,-0.21964 0.0145,-0.35234 z m -6.00803,-0.39661 c 0,-0.0349 -0.18613,-0.22101 -0.41361,-0.41361 l -0.41361,-0.35019 0.35018,0.41361 c 0.3291,0.38869 0.47704,0.4973 0.47704,0.35019 z m 5.8242,-0.89018 c -0.0587,-0.14664 -0.10224,-0.10308 -0.11106,0.11107 -0.008,0.19378 0.0355,0.30235 0.0965,0.24127 0.0611,-0.0611 0.0676,-0.21964 0.0145,-0.35234 z m -6.74334,0.15488 c 0,-0.0349 -0.18612,-0.22101 -0.41361,-0.41361 l -0.41361,-0.35019 0.35019,0.41361 c 0.32909,0.38869 0.47703,0.49729 0.47703,0.35019 z m -1.10296,-0.92512 c 0,-0.0382 -0.14476,-0.18294 -0.32169,-0.3217 -0.29156,-0.22865 -0.29807,-0.22215 -0.0694,0.0694 0.24015,0.30621 0.3911,0.40359 0.3911,0.25229 z m 7.66247,-0.51654 c -0.0587,-0.14665 -0.10224,-0.10309 -0.11106,0.11106 -0.008,0.19378 0.0355,0.30236 0.0965,0.24127 0.0611,-0.0611 0.0676,-0.21963 0.0145,-0.35233 z m -8.5816,-0.21877 c 0,-0.0382 -0.14476,-0.18293 -0.3217,-0.3217 -0.29156,-0.22865 -0.29806,-0.22215 -0.0694,0.0694 0.24014,0.30621 0.3911,0.40359 0.3911,0.25229 z M 279.74227,777.4815 c 0.42751,-0.37446 0.61184,-0.57042 0.40963,-0.43547 -0.62862,0.41953 -1.76656,1.53424 -1.95965,1.91964 -0.1013,0.20221 0.0311,0.10418 0.29427,-0.21784 0.26316,-0.32202 0.82824,-0.89187 1.25575,-1.26633 z m 113.7388,1.13902 c 0,-0.0382 -0.14477,-0.18293 -0.3217,-0.32169 -0.29156,-0.22866 -0.29806,-0.22216 -0.0694,0.0694 0.24015,0.30621 0.39111,0.40359 0.39111,0.25229 z m -32.40221,-2.82586 c -0.0379,-0.48025 -0.0688,-0.0873 -0.0688,0.87318 0,0.96049 0.031,1.35342 0.0688,0.87317 0.0379,-0.48024 0.0379,-1.2661 0,-1.74635 z m 31.48307,2.09056 c 0,-0.0382 -0.14476,-0.18294 -0.32169,-0.3217 -0.29156,-0.22866 -0.29807,-0.22215 -0.0694,0.0694 0.24015,0.30621 0.3911,0.40358 0.3911,0.25229 z m -0.91913,-0.73531 c 0,-0.0382 -0.14476,-0.18293 -0.3217,-0.3217 -0.29156,-0.22865 -0.29806,-0.22215 -0.0694,0.0694 0.24014,0.30621 0.3911,0.40359 0.3911,0.25229 z m -0.91913,-0.73531 c 0,-0.0382 -0.14477,-0.18293 -0.3217,-0.32169 -0.29156,-0.22866 -0.29806,-0.22216 -0.0694,0.0694 0.24015,0.30621 0.39111,0.40359 0.39111,0.25229 z m -0.91914,-0.7353 c 0,-0.0382 -0.14476,-0.18294 -0.32169,-0.3217 -0.29156,-0.22866 -0.29807,-0.22215 -0.0694,0.0694 0.24015,0.30621 0.3911,0.40358 0.3911,0.25229 z m -0.91913,-0.73531 c 0,-0.0382 -0.14477,-0.18293 -0.3217,-0.3217 -0.29156,-0.22865 -0.29806,-0.22215 -0.0694,0.0694 0.24014,0.30621 0.3911,0.40359 0.3911,0.25229 z m -0.91914,-0.73531 c 0,-0.0382 -0.14476,-0.18293 -0.32169,-0.32169 -0.29156,-0.22866 -0.29806,-0.22216 -0.0694,0.0694 0.24015,0.30621 0.3911,0.40359 0.3911,0.25229 z m 14.09641,-0.70036 c -0.0587,-0.14665 -0.10224,-0.10309 -0.11106,0.11106 -0.008,0.19378 0.0355,0.30235 0.0965,0.24127 0.0611,-0.0611 0.0676,-0.21964 0.0145,-0.35233 z m -15.01554,-0.0349 c 0,-0.0382 -0.14476,-0.18294 -0.3217,-0.3217 -0.29156,-0.22866 -0.29806,-0.22215 -0.0694,0.0694 0.24014,0.30621 0.3911,0.40358 0.3911,0.25229 z m -26.16547,-0.89569 c -0.051,-0.12638 -0.0927,-0.023 -0.0927,0.22979 0,0.25276 0.0417,0.35616 0.0927,0.22978 0.051,-0.12638 0.051,-0.33319 0,-0.45957 z m 25.24634,0.16038 c 0,-0.0382 -0.14477,-0.18293 -0.3217,-0.3217 -0.29156,-0.22865 -0.29806,-0.22215 -0.0694,0.0694 0.24014,0.30621 0.3911,0.40359 0.3911,0.25229 z m -0.91914,-0.73531 c 0,-0.0382 -0.14476,-0.18293 -0.32169,-0.32169 -0.29156,-0.22866 -0.29806,-0.22216 -0.0694,0.0694 0.24015,0.30621 0.3911,0.40359 0.3911,0.25229 z m 16.48616,-0.88419 c -0.0587,-0.14665 -0.10225,-0.10309 -0.11107,0.11106 -0.008,0.19378 0.0355,0.30236 0.0965,0.24127 0.0611,-0.0611 0.0676,-0.21963 0.0145,-0.35233 z m -17.48908,0.0476 c -0.058,-0.0939 0.0819,-0.2067 0.31085,-0.25071 0.29277,-0.0563 0.23234,-0.0874 -0.20361,-0.10505 -0.53146,-0.0215 -0.58728,0.0143 -0.3911,0.2507 0.25116,0.30264 0.45188,0.37692 0.28386,0.10506 z m 8.26405,-1.3928 c 0.90992,-0.16098 1.83336,-0.40994 2.05207,-0.55325 0.64899,-0.42523 0.69141,-1.18024 0.15382,-2.73778 -0.26483,-0.7673 -0.43032,-1.47793 -0.36775,-1.57917 0.21668,-0.3506 0.60429,-0.18182 0.7382,0.32144 0.074,0.27804 0.17256,0.40213 0.21907,0.27574 0.0553,-0.15038 0.48259,-0.22978 1.23639,-0.22978 0.6335,0 1.76404,-0.0517 2.5123,-0.115 1.22839,-0.10384 1.36048,-0.15292 1.36048,-0.50552 v -0.39053 h -9.31169 c -5.12142,0 -9.26846,0.0699 -9.21564,0.15535 0.0528,0.0854 -0.0663,0.37497 -0.26478,0.64339 -0.99443,1.34507 -1.4614,2.81897 -1.02983,3.25053 0.14886,0.14887 0.21325,0.27066 0.1431,0.27066 -0.0702,0 -0.0229,0.12608 0.10498,0.28018 0.12789,0.1541 0.27517,0.23754 0.32729,0.18543 0.0521,-0.0521 0.20578,-0.003 0.34146,0.10998 0.13568,0.1126 0.2467,0.14734 0.2467,0.0772 0,-0.0702 0.11709,-0.0104 0.26021,0.13266 0.14311,0.14312 0.86693,0.35563 1.60848,0.47226 0.74155,0.11662 1.55508,0.24828 1.80784,0.29258 0.90901,0.1593 5.45695,-0.0697 7.0773,-0.35635 z m 9.0412,0.0584 c -0.0587,-0.14664 -0.10224,-0.10309 -0.11106,0.11106 -0.008,0.19379 0.0355,0.30236 0.0966,0.24128 0.0611,-0.0611 0.0676,-0.21964 0.0145,-0.35234 z m -0.18383,-1.10296 c -0.0587,-0.14664 -0.10224,-0.10309 -0.11106,0.11106 -0.008,0.19379 0.0355,0.30236 0.0966,0.24128 0.0611,-0.0611 0.0676,-0.21964 0.0145,-0.35234 z m -58.2646,-0.8119 c -0.0611,-0.0611 -0.21963,-0.0676 -0.35233,-0.0145 -0.14665,0.0587 -0.10309,0.10224 0.11106,0.11106 0.19378,0.008 0.30236,-0.0355 0.24127,-0.0965 z m 4.41184,0 c -0.0611,-0.0611 -0.21963,-0.0676 -0.35233,-0.0145 -0.14665,0.0587 -0.10309,0.10224 0.11106,0.11106 0.19378,0.008 0.30236,-0.0355 0.24127,-0.0965 z m 1.65444,-0.18383 c -0.0611,-0.0611 -0.21963,-0.0676 -0.35233,-0.0145 -0.14665,0.0587 -0.10309,0.10224 0.11106,0.11106 0.19378,0.008 0.30236,-0.0355 0.24127,-0.0966 z m 52.01449,-0.29106 c -0.0587,-0.14664 -0.10224,-0.10308 -0.11106,0.11107 -0.008,0.19378 0.0355,0.30235 0.0966,0.24127 0.0611,-0.0611 0.0676,-0.21964 0.0145,-0.35234 z m -21.46398,-0.38999 c -0.0104,-0.1567 -0.041,-0.15329 -0.10761,0.012 -0.0512,0.12701 -0.18154,0.17627 -0.28963,0.10946 -0.11714,-0.0724 -0.1428,-0.0345 -0.0635,0.0938 0.15641,0.25308 0.48172,0.10112 0.46075,-0.21523 z m -29.25114,-0.37258 c 1.0167,-0.19243 1.47637,-0.3826 1.89857,-0.78543 0.52521,-0.50114 0.55362,-0.59986 0.49677,-1.72641 -0.0551,-1.09242 -0.0288,-1.19487 0.30735,-1.19487 0.27598,0 0.396,0.16044 0.48133,0.64339 0.0625,0.35387 0.12456,0.53999 0.13787,0.41361 0.0178,-0.16942 0.59165,-0.22978 2.18416,-0.22978 2.14718,0 2.15997,-0.003 2.15997,-0.43379 0,-0.42496 -0.0446,-0.43619 -2.18883,-0.55148 -1.20385,-0.0647 -3.39599,-0.11946 -4.87141,-0.12162 -1.47542,-0.002 -4.4611,-0.12448 -6.63485,-0.27181 -5.03294,-0.34114 -5.34518,-0.34281 -5.22439,-0.0281 0.0523,0.13623 -0.19904,0.59969 -0.55848,1.02991 -0.72967,0.87336 -0.93105,1.43932 -0.75778,2.12969 0.138,0.54984 0.47279,0.69507 2.7377,1.18765 1.456,0.31665 2.15798,0.35529 5.08973,0.28011 1.87044,-0.048 4.00447,-0.20147 4.74229,-0.34112 z m 28.34652,0.17616 c 0,-0.0382 -0.14476,-0.18294 -0.3217,-0.3217 -0.29156,-0.22866 -0.29806,-0.22216 -0.0694,0.0694 0.24014,0.30621 0.3911,0.40359 0.3911,0.2523 z m 22.24303,-0.49293 c 0,-0.20817 -0.0791,-0.32961 -0.1758,-0.26985 -0.0967,0.0598 -0.1292,0.23008 -0.0722,0.3785 0.14581,0.37999 0.24804,0.33521 0.24804,-0.10865 z m -23.89747,-0.90828 -0.82722,-0.72434 0.66161,-0.005 c 0.36389,-0.003 1.29858,0.0483 2.07708,0.11416 1.19073,0.10065 1.39848,0.16632 1.30854,0.41361 -0.0588,0.16168 0.0996,0.0458 0.35202,-0.25752 0.25241,-0.30331 0.46191,-0.64245 0.46555,-0.75363 0.004,-0.12794 -0.73442,-0.24715 -2.01216,-0.32475 -1.11033,-0.0674 -2.38821,-0.17325 -2.83975,-0.23514 -0.81626,-0.11188 -0.82023,-0.10974 -0.69082,0.37415 0.0723,0.27033 0.5788,0.84978 1.13935,1.30345 1.25053,1.0121 1.48143,1.07237 0.3658,0.0955 z m -17.99258,0.0597 c -0.2167,-0.37265 -0.26903,-0.25338 -0.0916,0.20889 0.063,0.16429 0.15334,0.25998 0.20067,0.21265 0.0473,-0.0473 -0.002,-0.23702 -0.10903,-0.42154 z m 41.64797,-0.27804 c -0.0587,-0.14664 -0.10224,-0.10308 -0.11106,0.11107 -0.008,0.19378 0.0355,0.30235 0.0965,0.24127 0.0611,-0.0611 0.0676,-0.21964 0.0145,-0.35234 z m -64.40838,-3.3987 c -1.39601,-0.11892 -2.94161,-0.26792 -3.43466,-0.33112 -0.73247,-0.0939 -0.87801,-0.0668 -0.79563,0.14786 0.0555,0.14452 0.0146,0.349 -0.0908,0.4544 -0.21584,0.21585 0.24476,0.29623 3.43734,0.59985 1.11215,0.10576 2.05207,0.27777 2.08871,0.38223 0.0366,0.10446 0.35161,-0.0861 0.69993,-0.42354 l 0.63331,-0.61347 z m 32.79019,0.45749 c -0.0587,-0.14665 -0.10224,-0.10309 -0.11106,0.11106 -0.008,0.19378 0.0355,0.30235 0.0965,0.24127 0.0611,-0.0611 0.0676,-0.21963 0.0145,-0.35233 z M 338.09944,604.49498 c -0.0611,-0.0611 -0.21963,-0.0676 -0.35233,-0.0145 -0.14665,0.0587 -0.10309,0.10225 0.11106,0.11107 0.19378,0.008 0.30236,-0.0355 0.24127,-0.0965 z"
       id="path72"
       transform="scale(0.26458333)" /><path
       style="fill:#ffffff;stroke:#000000;stroke-width:0.600983;stroke-linecap:round;stroke-linejoin:round"
       d="m 391.28155,497.84868 c -0.6479,-2.90269 -2.4142,-6.9781 -4.84005,-11.16747 -0.91102,-1.57332 -1.31086,-2.42849 -1.17034,-2.50314 0.1174,-0.0624 1.41291,-0.16702 2.87893,-0.23255 4.80541,-0.21483 15.69314,-1.66722 16.31462,-2.17633 0.12638,-0.10353 0.22979,-0.4032 0.22979,-0.66594 0,-0.44254 0.0894,-0.39015 1.21429,0.71186 2.51044,2.4593 5.54188,6.7314 5.0942,7.17907 -0.41867,0.41867 -6.00389,3.47337 -10.16886,5.56161 -3.78788,1.89917 -8.99775,4.34989 -9.24723,4.34989 -0.0382,0 -0.17559,-0.47565 -0.30535,-1.057 z"
       id="path73"
       transform="scale(0.26458333)" /><path
       style="fill:#ffffff;stroke:#000000;stroke-width:0.600983;stroke-linecap:round;stroke-linejoin:round"
       d="m 359.10547,495.28675 c -5.82942,-2.73774 -14.18291,-6.01878 -19.39372,-7.61737 -1.41546,-0.43424 -2.60097,-0.80648 -2.63446,-0.82719 -0.0335,-0.0207 1.04296,-1.30624 2.39211,-2.85672 1.34915,-1.55049 2.6361,-3.07725 2.8599,-3.39282 l 0.4069,-0.57375 2.16431,0.44131 c 6.07019,1.23772 13.85751,2.40813 19.44402,2.92236 1.81989,0.16752 3.41231,0.33456 3.53871,0.3712 0.13738,0.0398 -0.33696,0.78991 -1.17919,1.86468 -2.67077,3.40818 -5.39982,7.99212 -5.85854,9.84048 -0.069,0.27804 -0.17853,0.49873 -0.2434,0.49042 -0.0649,-0.008 -0.73835,-0.30648 -1.49664,-0.6626 z"
       id="path74"
       transform="scale(0.26458333)" /><path
       style="fill:#000000;stroke:#000000;stroke-width:0.600983;stroke-linecap:round;stroke-linejoin:round"
       d="m 343.86669,526.45141 c -0.28909,-0.64163 -0.72043,-1.77572 -0.95852,-2.5202 -0.2995,-0.93648 -0.54714,-1.39789 -0.80361,-1.49733 -0.20389,-0.0791 -1.00969,-0.43624 -1.79066,-0.79376 l -1.41995,-0.65002 0.7548,-1.713 c 1.72494,-3.91475 3.94403,-8.50073 5.35759,-11.07202 1.55413,-2.82697 5.03519,-8.21749 5.37627,-8.32529 0.106,-0.0335 3.01142,2.81767 6.45648,6.33593 l 6.26376,6.39684 -8.35408,6.70378 c -4.59474,3.68708 -8.80461,7.06331 -9.35527,7.50273 l -1.00119,0.79894 z"
       id="path75"
       transform="scale(0.26458333)" /><path
       style="fill:#000000;stroke:#000000;stroke-width:0.600983;stroke-linecap:round;stroke-linejoin:round"
       d="m 362.16716,542.19124 c -1.7676,-0.33426 -3.80521,-1.00653 -5.32153,-1.75572 -1.38866,-0.68612 -4.56262,-2.77498 -4.49712,-2.95966 0.10856,-0.30608 8.2667,-9.70938 8.42369,-9.70938 0.0944,0 0.17154,0.19667 0.17154,0.43705 0,0.69991 0.45309,0.95648 1.02608,0.58105 0.26204,-0.1717 0.49666,-0.28488 0.52139,-0.25153 0.0247,0.0334 2.06817,2.66639 4.541,5.85119 2.47283,3.18479 4.5607,5.89554 4.63972,6.02388 0.17442,0.28326 -1.62797,1.16721 -3.28321,1.61019 -1.57794,0.42228 -4.47684,0.50286 -6.22156,0.17293 z"
       id="path76"
       transform="scale(0.26458333)" /><path
       style="fill:#000000;stroke:#000000;stroke-width:0.600983;stroke-linecap:round;stroke-linejoin:round"
       d="m 370.62298,530.9949 c -2.89707,-3.29336 -5.2674,-6.02136 -5.2674,-6.06222 0,-0.0409 0.6092,-0.94447 1.35377,-2.00803 0.74457,-1.06356 1.9111,-3.03567 2.59229,-4.38246 0.68119,-1.34679 1.26692,-2.47864 1.30163,-2.51522 0.0461,-0.0486 10.74758,5.43487 10.8538,5.56147 0.009,0.0109 -0.0974,0.8057 -0.23669,1.76619 -0.60376,4.16191 -2.06735,8.62442 -3.74731,11.42563 -1.59077,2.65247 -0.80493,3.08672 -6.85009,-3.78536 z"
       id="path77"
       transform="scale(0.26458333)" /><path
       style="fill:#000000;stroke:#000000;stroke-width:0.600983;stroke-linecap:round;stroke-linejoin:round"
       d="m 377.2124,507.22527 -4.41184,-1.00867 0.0582,-2.13889 c 0.032,-1.17639 -0.0221,-2.92475 -0.12025,-3.88524 -0.0982,-0.9605 -0.1657,-1.75984 -0.15011,-1.77633 0.0156,-0.0165 1.81983,0.0613 4.00944,0.17294 l 3.9811,0.20292 0.19096,1.29767 c 0.24754,1.68208 0.95257,8.24283 0.87772,8.16772 -0.0129,-0.0129 -2.0087,-0.47736 -4.43522,-1.03212 z"
       id="path78"
       transform="scale(0.26458333)" /><path
       style="fill:#000000;stroke:#000000;stroke-width:0.600983;stroke-linecap:round;stroke-linejoin:round"
       d="m 382.01097,493.66397 c -4.69361,-1.64625 -13.53034,-5.68823 -13.53034,-6.18887 0,-0.38852 0.91083,-3.01171 1.15516,-3.32685 0.19527,-0.25187 0.56063,-0.26813 2.88903,-0.12855 1.46602,0.0879 4.54147,0.1643 6.83434,0.16982 l 4.16885,0.01 0.3703,0.98972 c 0.769,2.05533 1.01466,3.30727 1.01417,5.16847 -3.9e-4,1.47527 -0.0827,2.04699 -0.41674,2.89527 -0.22894,0.58135 -0.47235,1.05521 -0.54091,1.05302 -0.0686,-0.002 -0.9433,-0.29112 -1.94386,-0.64206 z"
       id="path79"
       transform="scale(0.26458333)" /><path
       style="fill:none;stroke:#000000;stroke-width:0.600983;stroke-linecap:round;stroke-linejoin:round"
       d="m 399.36798,543.4717 c -1.91726,-0.52854 -3.63202,-1.83198 -5.0594,-3.84584 -3.25834,-4.59707 -4.37442,-11.14 -3.2042,-18.78435 l 0.22653,-1.47981 3.69461,-0.11054 c 4.99828,-0.14953 8.64971,-0.84507 11.83741,-2.25482 0.55722,-0.24643 1.04869,-0.4125 1.09214,-0.36905 0.14471,0.14471 0.58361,3.90467 0.79974,6.85118 0.46144,6.29073 -0.30189,11.92346 -2.11366,15.59711 -1.74729,3.54288 -4.44763,5.17505 -7.27317,4.39612 z"
       id="path80"
       transform="scale(0.26458333)" /><path
       style="fill:#000000;stroke:#000000;stroke-width:0.600983;stroke-linecap:round;stroke-linejoin:round"
       d="m 362.78201,603.33904 c 5.56547,-1.54451 9.15223,-3.33785 9.73347,-4.86663 l 0.17146,-0.45097 1.98699,0.82252 c 4.62887,1.91613 10.20412,3.53653 15.03869,4.37086 l 2.57357,0.44414 -11.39725,0.0144 c -6.26849,0.008 -13.34123,0.0565 -15.71719,0.10786 l -4.31992,0.0935 z"
       id="path81"
       transform="scale(0.26458333)" /><path
       style="fill:#000000;stroke:#000000;stroke-width:0.300492;stroke-linecap:round;stroke-linejoin:round"
       d="m 329.24931,603.70997 -1.9145,-0.0268 0.0582,-1.26192 c 0.0874,-1.89331 -0.0455,-1.76966 1.22189,-1.13691 1.43892,0.71838 3.07857,1.37266 4.7548,1.89735 0.75829,0.23735 1.48211,0.46555 1.60849,0.5071 0.22204,0.073 -1.56221,0.0796 -5.72891,0.0212 z"
       id="path82"
       transform="scale(0.26458333)" /><path
       style="fill:#000000;stroke:#000000;stroke-width:0.300492;stroke-linecap:round;stroke-linejoin:round"
       d="m 402.30475,603.58714 c 3.19094,-0.44759 6.05333,-1.20379 8.31816,-2.19754 0.48024,-0.21072 0.92487,-0.40487 0.98807,-0.43144 0.089,-0.0374 0.11489,0.26489 0.11489,1.34021 v 1.38854 l -4.9863,-0.0112 c -3.12174,-0.007 -4.78008,-0.0401 -4.43482,-0.0886 z"
       id="path83"
       transform="scale(0.26458333)" /><path
       style="fill:#ffe7bf;fill-opacity:1;stroke:#000000;stroke-width:0.600983;stroke-linecap:round;stroke-linejoin:round"
       d="m 342.20969,439.75944 c -0.81607,-0.79031 -0.91418,-0.97511 -1.03376,-1.94729 -0.18142,-1.47501 0.68521,-11.36217 1.07816,-12.30045 0.18369,-0.43859 0.47687,-0.76349 0.80361,-0.89052 0.75667,-0.29419 2.11455,-0.25037 2.77169,0.0894 0.78351,0.40517 1.69479,1.76784 1.69579,2.53576 4.4e-4,0.33565 -0.21155,2.5956 -0.47108,5.02211 -0.40388,3.77608 -0.54307,4.5699 -0.96589,5.50865 -0.56336,1.25081 -1.3252,2.20154 -2.07469,2.58912 -0.73834,0.38181 -0.80671,0.35881 -1.80383,-0.60683 z m 2.71932,-4.70722 c 0.57645,-1.2208 0.82837,-2.80385 0.83905,-5.27262 0.008,-1.90829 -0.0461,-2.39086 -0.31596,-2.80336 -0.41939,-0.64116 -1.12015,-0.66306 -1.52341,-0.0476 -0.72903,1.11265 -1.32134,4.915 -1.09494,7.02907 0.22241,2.07684 1.35264,2.66724 2.09526,1.09452 z"
       id="path84"
       transform="scale(0.26458333)" /><path
       style="fill:#ffe7bf;fill-opacity:1;stroke:#000000;stroke-width:0.600983;stroke-linecap:round;stroke-linejoin:round"
       d="m 404.20347,441.19493 c -0.61345,-0.37405 -1.35248,-1.50256 -1.69246,-2.58441 -0.15433,-0.49107 -0.75632,-8.98134 -0.75753,-10.68389 -3.5e-4,-0.49397 1.4311,-2.13431 2.05114,-2.35046 1.39637,-0.48677 2.94856,-0.047 3.36678,0.95396 0.18873,0.4517 0.29142,2.01627 0.3835,5.84311 0.16425,6.82602 0.01,7.68867 -1.57175,8.7649 -0.74214,0.5051 -1.02942,0.51426 -1.77968,0.0568 z m 1.28345,-4.56805 c 0.52473,-0.57983 0.72941,-2.15248 0.62546,-4.8058 -0.10159,-2.59305 -0.32981,-3.66263 -0.88959,-4.16923 -0.45236,-0.40938 -1.14455,-0.20269 -1.43168,0.42749 -0.62435,1.3703 -0.57507,6.33543 0.0784,7.89941 0.43083,1.03114 1.04724,1.27815 1.6174,0.64813 z"
       id="path85"
       transform="scale(0.26458333)" /></g></svg>
