<?xml version="1.0" encoding="UTF-8" standalone="no"?>
<!-- Created with Inkscape (http://www.inkscape.org/) -->

<svg
   width="48.9935mm"
   height="109.4622mm"
   viewBox="0 0 48.9935 109.4622"
   version="1.1"
   id="svg1"
   inkscape:version="1.3.2 (091e20e, 2023-11-25, custom)"
   sodipodi:docname="milliberto.svg"
   xmlns:inkscape="http://www.inkscape.org/namespaces/inkscape"
   xmlns:sodipodi="http://sodipodi.sourceforge.net/DTD/sodipodi-0.dtd"
   xmlns="http://www.w3.org/2000/svg"
   xmlns:svg="http://www.w3.org/2000/svg">
  <sodipodi:namedview
     id="namedview1"
     pagecolor="#000000"
     bordercolor="#000000"
     borderopacity="0.24705882"
     inkscape:showpageshadow="2"
     inkscape:pageopacity="0.0"
     inkscape:pagecheckerboard="0"
     inkscape:deskcolor="#000000"
     inkscape:document-units="mm"
     inkscape:zoom="3.0337341"
     inkscape:cx="99.21766"
     inkscape:cy="208.32412"
     inkscape:window-width="2400"
     inkscape:window-height="1494"
     inkscape:window-x="-11"
     inkscape:window-y="-11"
     inkscape:window-maximized="1"
     inkscape:current-layer="layer1" />
  <defs
     id="defs1">
    <clipPath
       clipPathUnits="userSpaceOnUse"
       id="clipPath47">
      <path
         id="path48"
         style="fill:#ff0000;fill-opacity:1;fill-rule:nonzero;stroke:none"
         d="M 88.298828,61.197266 V 84.402344 H 109.78125 V 61.197266 h -4.79102 c 1.81919,1.906658 0.54775,4.656394 -2.86523,4.435546 -0.19294,0.173406 -0.39446,0.317169 -0.60352,0.425782 -0.56642,5.173061 -5.999053,4.788734 -5.806636,-0.796875 6.28e-4,-0.01824 0.0013,-0.03644 0.002,-0.05469 -0.659343,-0.563619 -1.189006,-1.506877 -1.400391,-2.863281 -0.269211,-0.09112 -0.54002,-0.17701 -0.8125,-0.257812 C 92.730446,61.85654 92.097969,61.54919 91.59575,61.197264 Z m 6.267578,1.234375 c 0.04344,0.02776 0.08749,0.05513 0.136719,0.07813 0.07042,0.03288 -0.07091,-0.04637 -0.136719,-0.07813 z" />
    </clipPath>
  </defs>
  <g
     inkscape:label="Layer 1"
     inkscape:groupmode="layer"
     id="layer1"
     transform="translate(-110.33125,-30.427082)">
    <path
       style="fill:none;stroke:#00ffff;stroke-width:0.421772;stroke-linecap:round"
       d="m 111.11193,138.49085 c 3.88177,1.69035 9.15632,0.28826 13.88569,0.0967"
       id="path1"
       sodipodi:nodetypes="cc" />
    <path
       style="fill:none;stroke:#00ffff;stroke-width:0.421772;stroke-linecap:round"
       d="m 111.11193,138.49085 c -0.9878,-0.95816 -0.49473,-1.26474 0,-1.57059 3.85179,-2.66556 8.66498,-2.9677 13.19027,-3.97756"
       id="path2"
       sodipodi:nodetypes="ccc" />
    <path
       style="fill:none;stroke:#00ffff;stroke-width:0.421772;stroke-linecap:round"
       d="m 124.99762,138.5875 0.0108,0.72252 h 7.89365 c 0.63335,-0.22909 0.54488,-0.53415 0.63788,-0.82012 -0.24164,-1.80772 0.396,-3.88722 -1.35548,-5.22827"
       id="path3"
       sodipodi:nodetypes="ccccc" />
    <path
       style="fill:#ffffff;stroke:#ffffff;stroke-width:0.421772;stroke-linecap:butt;stroke-linejoin:round"
       d="m 127.17983,132.86509 -0.0869,0.71548 c 2.6234,0.80167 3.45539,0.21003 4.20317,-0.44711"
       id="path6"
       sodipodi:nodetypes="ccc" />
    <path
       style="fill:none;stroke:#00ffff;stroke-width:0.421772;stroke-linecap:round"
       d="m 123.55042,132.27065 c 3.97942,0.85286 7.85881,0.99845 11.68672,0.7801"
       id="path5"
       sodipodi:nodetypes="cc" />
    <path
       style="fill:#0000ff;stroke:#ffffff;stroke-width:0.421772;stroke-linecap:butt;stroke-linejoin:round"
       d="m 136.33813,96.092792 -1.10099,36.957958"
       id="path8" />
    <path
       style="fill:none;stroke:#00ffff;stroke-width:0.421772;stroke-linecap:butt;stroke-linejoin:round"
       d="m 137.80402,133.35215 c -1.13418,1.85371 -1.97762,3.76415 -1.36924,5.95787"
       id="path9"
       sodipodi:nodetypes="cc" />
    <path
       style="fill:none;stroke:#00ffff;stroke-width:0.421772;stroke-linecap:butt;stroke-linejoin:round"
       d="m 138.75443,134.28246 c 1.0497,0.41152 2.17071,0.56839 3.37075,0.44299 0.82206,-0.33981 0.75117,-0.78647 0.32217,-1.27599"
       id="path10"
       sodipodi:nodetypes="ccc" />
    <path
       style="fill:none;stroke:#00ffff;stroke-width:0.421772;stroke-linecap:butt;stroke-linejoin:round"
       d="m 138.75443,134.28246 c -0.46039,-0.18538 -0.25429,-0.58453 -0.17409,-0.9433"
       id="path11"
       sodipodi:nodetypes="cc" />
    <path
       style="fill:none;stroke:#00ffff;stroke-width:0.421772;stroke-linecap:round;stroke-linejoin:round"
       d="m 136.43478,139.31002 c 2.33344,0.45117 4.69544,0.44523 7.07172,0.21089 l 0.20941,-0.7401 c 3.98421,0.5107 7.96843,0.71549 11.95265,0.52921 2.98306,-0.75145 3.10489,-1.74357 1.4981,-2.88108"
       id="path12"
       sodipodi:nodetypes="ccccc" />
    <path
       style="fill:none;stroke:#00ffff;stroke-width:0.421772;stroke-linecap:round;stroke-linejoin:round"
       d="m 145.40732,133.509 c 4.87712,0.62761 8.40688,1.74176 11.75934,2.91994"
       id="path13"
       sodipodi:nodetypes="cc" />
    <path
       style="fill:#0000ff;stroke:#00ffff;stroke-width:0.421772;stroke-linecap:butt;stroke-linejoin:round"
       d="m 135.23714,133.05075 c 3.57377,0.41299 7.26768,0.4896 11.05616,0.3014"
       id="path7"
       sodipodi:nodetypes="cc" />
    <path
       style="fill:none;stroke:#00ffff;stroke-width:0.421772;stroke-linecap:round;stroke-linejoin:round"
       d="m 124.51309,89.391579 -0.96267,42.879071"
       id="path14" />
    <path
       style="fill:none;stroke:#00ffff;stroke-width:0.421772;stroke-linecap:round;stroke-linejoin:round"
       d="m 146.22241,133.35564 0.79257,-43.685685"
       id="path15" />
    <path
       style="fill:none;stroke:#00ffff;stroke-width:0.421772;stroke-linecap:round;stroke-linejoin:round"
       d="m 135.78764,76.251873 c -0.31794,4.176541 -0.60922,8.353078 -0.39103,12.529619 0.7448,1.031499 1.76337,1.51547 2.87042,1.822489 17.66029,1.482511 13.24125,-11.329108 10.57044,-23.008933"
       id="path16"
       sodipodi:nodetypes="cccc" />
    <path
       style="fill:none;stroke:#00ffff;stroke-width:0.421772;stroke-linecap:round;stroke-linejoin:round"
       d="m 135.39661,88.781492 0.007,1.093345 c -4.00423,0.588116 -24.90866,5.259094 -10.0196,-23.615332"
       id="path18"
       sodipodi:nodetypes="ccc" />
    <path
       style="fill:none;stroke:#00ffff;stroke-width:0.421772;stroke-linecap:butt;stroke-linejoin:round"
       d="m 119.89181,83.4958 c -1.84279,-0.200404 -2.05398,-1.360573 -2.49749,-2.384087 l 1.61087,0.676564 0.0644,-0.902087 c -2.32566,-3.100088 -4.27456,-6.252503 -5.50917,-9.504124"
       id="path19"
       sodipodi:nodetypes="ccccc" />
    <path
       style="fill:none;stroke:#00ffff;stroke-width:0.421772;stroke-linecap:butt;stroke-linejoin:round"
       d="m 120.77901,77.663499 c -4.63451,-3.692411 -4.12971,-6.081204 -0.40655,-8.257352"
       id="path20"
       sodipodi:nodetypes="cc" />
    <path
       style="fill:none;stroke:#00ffff;stroke-width:0.421772;stroke-linecap:square;stroke-linejoin:round"
       d="m 113.56045,71.382066 c 1.36643,-1.893787 3.27232,-3.487875 5.17177,-5.085543"
       id="path21"
       sodipodi:nodetypes="cc" />
    <g
       id="g28"
       transform="matrix(0.2613862,0.04100725,-0.04100725,0.2613862,118.83197,22.336449)">
      <path
         style="fill:none;stroke:#00ffff;stroke-width:1.5941;stroke-linecap:butt;stroke-linejoin:round"
         d="m 155.32527,207.83941 c 6.9649,-0.75743 7.76311,-5.14232 9.43936,-9.01072 l -6.08832,2.55709 -0.24354,-3.40946 c 8.7899,-11.71687 16.15583,-23.63151 20.82208,-35.9211"
         id="path19-4"
         sodipodi:nodetypes="ccccc" />
      <path
         style="fill:none;stroke:#00ffff;stroke-width:1.5941;stroke-linecap:butt;stroke-linejoin:round"
         d="m 151.97208,185.79607 c 17.51627,-13.95557 15.60836,-22.98408 1.53659,-31.20889"
         id="path20-1"
         sodipodi:nodetypes="cc" />
      <path
         style="fill:none;stroke:#00ffff;stroke-width:1.5941;stroke-linecap:square;stroke-linejoin:round"
         d="M 179.25485,162.05522 C 174.09039,154.8976 166.88702,148.8727 159.70801,142.83427"
         id="path21-1"
         sodipodi:nodetypes="cc" />
    </g>
    <path
       style="fill:none;stroke:#00ffff;stroke-width:0.421772;stroke-linecap:square;stroke-linejoin:round"
       d="m 122.94849,71.408233 c -2.0198,-2.286883 -3.07829,-1.33482 -4.40991,-6.615263"
       id="path22"
       sodipodi:nodetypes="cc" />
    <path
       style="fill:none;stroke:#00ffff;stroke-width:0.421772;stroke-linecap:square;stroke-linejoin:round"
       d="m 118.53858,64.79297 c 2.99621,-1.812412 5.21387,-3.56498 8.45179,-4.863772 0.40517,-0.782243 0.77359,-1.574697 1.70859,-2.209768"
       id="path23"
       sodipodi:nodetypes="ccc" />
    <path
       style="fill:none;stroke:#00ffff;stroke-width:0.421772;stroke-linecap:square;stroke-linejoin:round"
       d="m 126.99037,59.929198 c 2.23272,0.268544 4.34194,1.278152 6.42428,2.448973 0.37915,-1.135258 0.9053,-2.270519 1.94778,-3.405777"
       id="path24"
       sodipodi:nodetypes="ccc" />
    <path
       style="fill:none;stroke:#00ffff;stroke-width:0.421772;stroke-linecap:square;stroke-linejoin:round"
       d="m 127.53712,68.529075 2.98433,-5.763625 4.40298,3.918352 c -1.99125,2.149586 -1.22472,2.743499 -0.96303,3.622198 1.14378,-0.985004 2.1726,-2.53384 2.46036,-7.716953"
       id="path4"
       sodipodi:nodetypes="ccccc" />
    <path
       style="fill:none;stroke:#00ffff;stroke-width:0.421772;stroke-linecap:square;stroke-linejoin:round"
       d="m 128.79008,69.531443 c 2.19368,5.308047 10.89233,10.614769 10.00091,-7.164649"
       id="path17"
       sodipodi:nodetypes="cc" />
    <path
       style="fill:none;stroke:#00ffff;stroke-width:0.421772;stroke-linecap:square;stroke-linejoin:round"
       d="m 127.53712,68.529075 1.25296,1.002368"
       id="path25" />
    <path
       style="fill:none;stroke:#00ffff;stroke-width:0.421772;stroke-linecap:square;stroke-linejoin:round"
       d="m 136.42176,62.589047 -1.05933,-3.616653"
       id="path26" />
    <path
       style="fill:none;stroke:#00ffff;stroke-width:0.421772;stroke-linecap:square;stroke-linejoin:round"
       d="m 138.79099,62.366794 1.0935,-2.745139"
       id="path27" />
    <path
       style="fill:none;stroke:#00ffff;stroke-width:0.421772;stroke-linecap:square;stroke-linejoin:round"
       d="m 139.88449,59.621655 c -0.70431,-2.628531 1.45071,2.516118 1.5719,3.417167 1.96595,-0.554101 3.85424,-1.807125 5.76362,-2.870419 2.70573,1.352177 5.27519,3.113143 7.67724,5.376344 -2.88431,5.021042 -3.67045,4.18471 -5.23926,5.533321"
       id="path28"
       sodipodi:nodetypes="ccccc" />
    <path
       style="fill:none;stroke:#00ffff;stroke-width:0.421772;stroke-linecap:square;stroke-linejoin:round"
       d="m 141.38804,68.232662 c -1.44745,8.595008 6.87091,8.671324 4.60179,-0.660395"
       id="path29"
       sodipodi:nodetypes="cc" />
    <path
       style="fill:none;stroke:#00ffff;stroke-width:0.421772;stroke-linecap:square;stroke-linejoin:round"
       d="m 141.38804,68.232662 c 1.66308,0.111974 3.35119,0.288285 4.60179,-0.660395"
       id="path30"
       sodipodi:nodetypes="cc" />
    <path
       style="fill:none;stroke:#00ffff;stroke-width:0.421772;stroke-linecap:square;stroke-linejoin:round"
       d="m 142.91438,68.232662 0.0228,-1.594422"
       id="path31" />
    <path
       style="fill:none;stroke:#00ffff;stroke-width:0.421772;stroke-linecap:square;stroke-linejoin:round"
       d="m 144.6913,65.749778 0.22782,2.482884"
       id="path32" />
    <path
       style="fill:none;stroke:#00ffff;stroke-width:0.421772;stroke-linecap:square;stroke-linejoin:round"
       d="m 147.22001,60.168403 c -0.55419,-0.444855 -0.98487,-0.790898 -2.4148,-1.936396 -4.71701,1.094298 -10.37454,0.362858 -16.10625,-0.512577"
       id="path33"
       sodipodi:nodetypes="ccc" />
    <ellipse
       style="fill:none;stroke:#00ffff;stroke-width:1.5941;stroke-linecap:square;stroke-linejoin:round"
       id="path34"
       cx="99.040283"
       cy="72.799141"
       rx="9.944767"
       ry="10.805786"
       clip-path="url(#clipPath47)"
       transform="matrix(0.26458333,0,0,0.26458333,111.11193,29.596135)" />
    <ellipse
       style="fill:none;stroke:#00ffff;stroke-width:0.421772;stroke-linecap:square;stroke-linejoin:round"
       id="path49"
       cx="135.6604"
       cy="43.239227"
       rx="1.6150962"
       ry="2.6398094" />
    <ellipse
       style="fill:none;stroke:#00ffff;stroke-width:0.281789;stroke-linecap:square;stroke-linejoin:round"
       id="path49-49"
       cx="129.12112"
       cy="44.967697"
       rx="0.86496735"
       ry="2.200206" />
    <ellipse
       style="fill:none;stroke:#00ffff;stroke-width:0.281789;stroke-linecap:square;stroke-linejoin:round"
       id="path49-49-2"
       cx="145.15628"
       cy="45.480137"
       rx="0.86496735"
       ry="2.200206" />
    <ellipse
       style="fill:none;stroke:#00ffff;stroke-width:0.421772;stroke-linecap:square;stroke-linejoin:round"
       id="path49-4"
       cx="139.33774"
       cy="43.239227"
       rx="1.6150962"
       ry="2.6398094" />
    <path
       style="fill:none;stroke:#00ffff;stroke-width:0.421772;stroke-linecap:square;stroke-linejoin:round"
       d="m 140.95284,43.239226 h 2.98669"
       id="path50" />
    <path
       style="fill:none;stroke:#00ffff;stroke-width:0.421772;stroke-linecap:square;stroke-linejoin:round"
       d="m 134.04531,43.239226 -3.9567,-0.210886"
       id="path51" />
    <path
       style="fill:none;stroke:#00ffff;stroke-width:0.421772;stroke-linecap:square;stroke-linejoin:round"
       d="m 128.69896,57.71943 2.57426,-25.503466"
       id="path52" />
    <path
       style="fill:none;stroke:#00ffff;stroke-width:0.421772;stroke-linecap:square;stroke-linejoin:round"
       d="M 144.80521,58.232007 143.82562,32.147621"
       id="path53" />
    <path
       style="fill:none;stroke:#00ffff;stroke-width:0.421772;stroke-linecap:square;stroke-linejoin:round"
       d="m 132.70843,31.350281 c 1.13903,-1.176847 1.9824,-0.579738 2.82486,0.02278 1.57331,-1.431662 2.14862,-0.406727 2.98433,-0.02278 1.18713,-0.982809 2.25232,-0.827429 3.2577,-0.113905 6.39228,-0.457432 1.46795,0.594018 2.0503,0.911245"
       id="path54"
       sodipodi:nodetypes="ccccc" />
    <path
       style="fill:none;stroke:#00ffff;stroke-width:0.421772;stroke-linecap:square;stroke-linejoin:round"
       d="m 131.27322,32.215964 c -1.33725,-0.595433 -4.51721,-2.427901 1.43521,-0.865683"
       id="path55"
       sodipodi:nodetypes="cc" />
    <path
       style="fill:#ffffff;stroke:#ffffff;stroke-width:0.262729;stroke-linecap:square;stroke-linejoin:round"
       d="m 531.83347,508.37034 c -1.88869,-0.18302 -3.85941,-0.59453 -5.65598,-1.18103 -1.74959,-0.57117 -1.90687,-0.68321 -1.90358,-1.356 0.005,-0.98438 -0.12999,-0.96149 4.545,-0.77152 2.3485,0.0954 5.36504,0.17354 6.70342,0.17358 l 2.43342,7e-5 0.32659,0.53565 c 0.61108,1.00224 0.3376,1.68327 -0.9338,2.32543 -0.64542,0.32599 -3.50931,0.46818 -5.51507,0.27382 z"
       id="path35"
       transform="scale(0.26458333)" />
    <path
       style="fill:#ffffff;stroke:#00ffff;stroke-width:0.262729;stroke-linecap:square;stroke-linejoin:round"
       d="m 525.25535,172.15498 c -1.42076,-0.75137 -2.76515,-2.76894 -3.4094,-5.11661 -0.41596,-1.51578 -0.40869,-5.73289 0.0125,-7.25179 0.4487,-1.6181 1.17606,-3.01388 2.09392,-4.01817 1.86251,-2.03788 4.0223,-1.85866 5.79704,0.48103 2.90584,3.83085 2.70404,11.47411 -0.3916,14.83249 -1.21929,1.32278 -2.83242,1.74471 -4.10247,1.07305 z"
       id="path36"
       transform="scale(0.26458333)" />
    <path
       style="fill:#ffffff;stroke:#00ffff;stroke-width:0.262729;stroke-linecap:square;stroke-linejoin:round"
       d="m 511.41595,172.18916 c -1.46106,-0.71057 -2.81065,-2.74812 -3.48351,-5.25925 -0.48407,-1.80657 -0.48699,-5.20074 -0.006,-7.00392 0.63184,-2.36873 1.86005,-4.30973 3.22105,-5.09033 1.07466,-0.61637 1.89327,-0.63155 3.04722,-0.0565 1.46292,0.72901 2.87136,2.99252 3.43311,5.51738 0.39229,1.76317 0.3514,4.96045 -0.0843,6.59645 -0.67581,2.53727 -2.05264,4.61355 -3.51541,5.30131 -0.76262,0.35857 -1.86876,0.3564 -2.6121,-0.005 z"
       id="path37"
       transform="scale(0.26458333)" />
    <path
       style="fill:#ffff00;stroke:#00ffff;stroke-width:0.0656824;stroke-linecap:square;stroke-linejoin:round"
       d="m 508.27707,281.19224 c -3.52649,-0.23355 -7.31274,-2.06355 -11.15868,-5.39328 -0.74386,-0.64401 -2.41492,-2.30529 -3.09675,-3.07861 -1.91598,-2.17311 -3.60208,-4.5635 -4.94651,-7.01271 -0.3813,-0.69462 -1.0455,-2.0349 -1.24535,-2.51297 l -0.1085,-0.25954 0.0838,-0.11765 c 0.0461,-0.0647 0.0827,-0.13334 0.0815,-0.1525 -10e-4,-0.0192 -0.10063,-0.1124 -0.22081,-0.2072 -0.1734,-0.13677 -0.24251,-0.22881 -0.33473,-0.44581 -0.10085,-0.23728 -0.1275,-0.2699 -0.20153,-0.24665 -0.0469,0.0147 -0.12305,0.036 -0.16918,0.0472 -0.0635,0.0155 -0.54322,-0.34665 -1.97776,-1.4929 -1.04164,-0.83231 -1.89871,-1.51684 -1.9046,-1.52118 -0.01,-0.007 10.44222,-20.21064 10.47031,-20.23873 0.008,-0.008 14.76789,13.10286 15.22395,13.52358 0.008,0.007 -0.147,0.19505 -0.34361,0.41783 -1.97219,2.23465 -3.31436,4.33727 -3.91445,6.1323 -0.29278,0.87577 -0.36842,1.34381 -0.36958,2.28679 -10e-4,1.19884 0.13532,1.79247 0.80328,3.48575 0.22708,0.57565 0.46147,1.1973 0.52086,1.38143 0.16818,0.52142 0.4121,0.73647 0.83529,0.73647 0.38017,0 0.53219,-0.11107 1.62604,-1.18802 0.92315,-0.90889 1.56115,-1.65271 2.24472,-2.61706 2.73478,-3.85807 4.4821,-9.43879 5.50412,-17.57945 0.2487,-1.98092 0.56039,-5.3643 0.66048,-7.16939 0.0394,-0.70954 0.0541,-0.7818 0.16806,-0.82514 0.12154,-0.0462 0.1215,-0.0449 0.0127,-0.39632 -0.0702,-0.22676 -0.0833,-0.34949 -0.0664,-0.62239 l 0.021,-0.33992 h -0.11586 c -0.0944,0 -0.12378,-0.0248 -0.15875,-0.13392 -0.0236,-0.0737 -0.85101,-2.89659 -1.8387,-6.27321 -0.98768,-3.37661 -1.80476,-6.16963 -1.81573,-6.20671 -0.011,-0.0371 0.0292,-0.1258 0.0892,-0.19717 l 0.10919,-0.12975 -0.24181,-0.25607 c -0.23949,-0.25362 -0.24073,-0.25619 -0.12939,-0.26902 0.0618,-0.007 0.57172,0.0252 1.13309,0.0718 4.19551,0.34828 7.83045,0.52738 11.50966,0.56713 l 2.33072,0.0252 0.0697,0.4367 c 0.0383,0.24018 0.14372,0.73998 0.23419,1.11067 0.0905,0.37068 0.1645,0.70355 0.1645,0.7397 0,0.0362 -0.85755,2.22107 -1.90566,4.85537 l -1.90565,4.78964 -0.14421,0.0125 -0.14421,0.0125 0.0141,0.31078 c 0.0118,0.26023 -0.003,0.35355 -0.0927,0.57365 -0.0587,0.14458 -0.10681,0.28523 -0.10681,0.31257 0,0.0273 0.0556,0.0727 0.12361,0.1009 0.068,0.0282 0.12387,0.0814 0.12419,0.11831 3.2e-4,0.0369 0.0273,0.69752 0.0599,1.46802 0.22722,5.36613 0.18185,11.10891 -0.1242,15.71908 -0.73782,11.11412 -3.04834,19.17996 -6.78083,23.67132 -2.32458,2.7972 -5.36522,4.19402 -8.65533,3.97612 z"
       id="path38"
       transform="scale(0.26458333)" />
  </g>
</svg>
