<?xml version="1.0" encoding="UTF-8" standalone="no"?>
<svg
   width="56.401009mm"
   height="76.160393mm"
   viewBox="0 0 56.401007 76.160392"
   version="1.1"
   id="svg1"
   sodipodi:docname="pullup_front.svg"
   inkscape:version="1.3.2 (091e20e, 2023-11-25, custom)"
   xmlns:inkscape="http://www.inkscape.org/namespaces/inkscape"
   xmlns:sodipodi="http://sodipodi.sourceforge.net/DTD/sodipodi-0.dtd"
   xmlns:xlink="http://www.w3.org/1999/xlink"
   xmlns="http://www.w3.org/2000/svg"
   xmlns:svg="http://www.w3.org/2000/svg">
  <sodipodi:namedview
     id="namedview1"
     pagecolor="#000000"
     bordercolor="#000000"
     borderopacity="0.25"
     inkscape:showpageshadow="2"
     inkscape:pageopacity="0.0"
     inkscape:pagecheckerboard="0"
     inkscape:deskcolor="#000000"
     inkscape:document-units="mm"
     inkscape:zoom="5.7037123"
     inkscape:cx="124.74332"
     inkscape:cy="210.03864"
     inkscape:window-width="2400"
     inkscape:window-height="1494"
     inkscape:window-x="-11"
     inkscape:window-y="-11"
     inkscape:window-maximized="1"
     inkscape:current-layer="svg1" />
  <defs
     id="defs1">
    <linearGradient
       id="linearGradient40"
       inkscape:collect="always">
      <stop
         style="stop-color:#ffff00;stop-opacity:1;"
         offset="0"
         id="stop40" />
      <stop
         style="stop-color:#ffff00;stop-opacity:0;"
         offset="1"
         id="stop41" />
    </linearGradient>
    <marker
       style="overflow:visible"
       id="marker10"
       refX="0"
       refY="0"
       orient="auto-start-reverse"
       inkscape:stockid="Wide arrow"
       markerWidth="1"
       markerHeight="1"
       viewBox="0 0 1 1"
       inkscape:isstock="true"
       inkscape:collect="always"
       preserveAspectRatio="xMidYMid">
      <path
         style="fill:none;stroke:context-stroke;stroke-width:1;stroke-linecap:butt"
         d="M 3,-3 0,0 3,3"
         transform="rotate(180,0.125,0)"
         sodipodi:nodetypes="ccc"
         id="path10" />
    </marker>
    <linearGradient
       id="linearGradient7"
       inkscape:collect="always">
      <stop
         style="stop-color:#00ffff;stop-opacity:1;"
         offset="0"
         id="stop8" />
      <stop
         style="stop-color:#00ffff;stop-opacity:0;"
         offset="1"
         id="stop9" />
    </linearGradient>
    <rect
       x="-24.457754"
       y="87.74987"
       width="60.136272"
       height="29.4545"
       id="rect2" />
    <marker
       style="overflow:visible"
       id="ArrowWide"
       refX="0"
       refY="0"
       orient="auto-start-reverse"
       markerWidth="1"
       markerHeight="1"
       viewBox="0 0 1 1"
       preserveAspectRatio="xMidYMid">
      <path
         style="fill:none;stroke:context-stroke;stroke-width:1;stroke-linecap:butt"
         d="M 3,-3 0,0 3,3"
         transform="rotate(180,0.125,0)"
         id="path2" />
    </marker>
    <marker
       style="overflow:visible"
       id="ArrowWide-1"
       refX="0"
       refY="0"
       orient="auto-start-reverse"
       markerWidth="1"
       markerHeight="1"
       viewBox="0 0 1 1"
       preserveAspectRatio="xMidYMid">
      <path
         style="fill:none;stroke:context-stroke;stroke-width:1;stroke-linecap:butt"
         d="M 3,-3 0,0 3,3"
         transform="rotate(180,0.125,0)"
         id="path2-0" />
    </marker>
    <linearGradient
       inkscape:collect="always"
       xlink:href="#linearGradient7"
       id="linearGradient9"
       x1="-5.1115241"
       y1="16.85041"
       x2="7.8020225"
       y2="16.85041"
       gradientUnits="userSpaceOnUse"
       gradientTransform="translate(-2.6904984)" />
    <clipPath
       clipPathUnits="userSpaceOnUse"
       id="clipPath29">
      <path
         id="path30"
         style="fill:#ff0000;fill-opacity:1;fill-rule:nonzero;stroke:none;stroke-width:0.264583"
         d="m 5.1113485,15.32264 v 0.07028 c -0.02391,-0.0063 -0.05013,-0.01087 -0.079065,-0.01344 C 4.8403841,15.36249 4.6480194,15.35431 4.4555744,15.34641 4.3570594,15.345669 4.2590107,15.33596 4.1615355,15.32264 Z m -12.9134237,0.214457 c 0.04221,0.0141 0.088141,0.02582 0.1390097,0.03411 0.1270124,0.02071 0.2539092,0.04299 0.3808552,0.06408 0.1032447,0.01798 0.2055501,0.03951 0.306958,0.06615 0.1212331,0.0274 0.2416344,0.05958 0.3638021,0.08268 0.1311023,0.02692 0.2624376,0.0504 0.394808,0.07028 0.1453642,0.02236 0.291412,0.03732 0.4382161,0.01809 0.1244999,-0.01245 0.2482748,-0.0303 0.3715536,-0.05168 0.1298456,-0.02064 0.2599436,-0.04146 0.3911906,-0.05116 0.1747341,-0.0093 0.3486765,-8.99e-4 0.5214152,0.02894 0.1258829,0.01912 0.2514061,0.04049 0.3762044,0.06563 0.030964,0.0127 0.06279,0.02416 0.095601,0.03307 0.048958,0.01213 0.099131,0.01682 0.1493449,0.02015 0.061043,0.01191 0.1176375,0.01663 0.1694987,0.0155 0.02421,-5.29e-4 0.047641,-0.0016 0.069763,-0.0047 0.2298058,-0.01995 0.3587615,-0.149146 0.3715535,-0.294039 0.041246,-4.76e-4 0.082702,-0.0011 0.1240235,5.29e-4 0.1809781,0.0039 0.3604217,0.02345 0.5395019,0.04961 0.1856745,0.02311 0.3713692,0.04566 0.5575887,0.06408 0.2347231,0.02481 0.4700337,0.0412 0.7053833,0.05891 0.2245063,0.01865 0.44876605,0.04228 0.6723104,0.07028 0.24297481,0.02736 0.48626262,0.05569 0.73122155,0.04909 0.16469307,1.5e-4 0.33011136,0.0024 0.49402656,-0.01654 0.15735114,-0.01484 0.31457767,-0.02997 0.47180579,-0.04599 0.1659263,-0.02071 0.331547,-0.04555 0.4940268,-0.08578 0.1629003,-0.03853 0.3253907,-0.07912 0.488859,-0.115238 0.1247413,-0.02781 0.2508327,-0.05019 0.3746542,-0.08217 0.013041,-0.003 0.026228,-0.0053 0.039274,-0.0083 0.049533,0.05039 0.1369224,0.08127 0.2625164,0.05994 0.091277,-0.01549 0.1838418,-0.03211 0.267167,-0.07441 0.010025,-0.0029 0.019733,-0.0073 0.029972,-0.0093 0.039809,-0.0079 0.081731,-0.0025 0.1214395,0.0016 0.1468417,0.0175 0.2932846,0.03815 0.4397664,0.0584 0.1330402,0.01744 0.2656488,0.03715 0.397392,0.06305 0.1624875,0.02747 0.3263357,0.04946 0.4914426,0.05116 0.1819987,0.0075 0.3636325,0.01587 0.5451864,0.03101 V 15.7536 c 0.044799,0.0037 0.084682,0.0015 0.1198893,-0.0052 0.00122,1.06e-4 0.00241,4.24e-4 0.00362,5.29e-4 8.467e-4,7.5e-5 0.00172,-7.5e-5 0.00259,0 v 2.629297 H -7.8020668 Z" />
    </clipPath>
    <linearGradient
       inkscape:collect="always"
       xlink:href="#linearGradient40"
       id="linearGradient41"
       x1="-9.2913151"
       y1="29.698202"
       x2="26.708681"
       y2="29.698202"
       gradientUnits="userSpaceOnUse"
       gradientTransform="matrix(0.41485236,0,0,2.1180769,-5.8572514,-38.285578)" />
    <clipPath
       clipPathUnits="userSpaceOnUse"
       id="clipPath75">
      <path
         id="path76"
         style="fill:#ff0000;fill-opacity:1;fill-rule:nonzero;stroke:none;stroke-width:0.264583"
         d="m 5.3552612,23.267671 v 2.699688 H -9.84425 v -2.26939 c 0.015875,-0.0015 0.031779,-0.0033 0.047654,-0.0046 0.04985,-0.0076 0.094619,-0.0251 0.1383731,-0.04483 0.04494,0.0048 0.089984,0.0085 0.1348433,0.01412 0.1539184,0.01646 0.308277,0.03188 0.4631264,0.0353 0.1308105,-0.0018 0.2614939,-0.01038 0.3904098,-0.03424 0.052397,-0.0091 0.1031985,-0.02177 0.1567289,-0.01835 0.085347,5.7e-5 0.1709266,4.5e-5 0.2562727,3.61e-4 0.1064871,4.16e-4 0.2129814,8.68e-4 0.3194583,0.0025 0.1116009,0.002 0.2232676,0.0044 0.334637,0.01235 0.1514128,0.01141 0.3022759,0.02765 0.4528897,0.04695 0.1392695,0.01517 0.2761467,0.03912 0.4122954,0.07272 0.1635097,0.03204 0.3283433,0.05589 0.4938368,0.07519 0.1800831,0.02265 0.3607502,0.043 0.5414907,0.0593 0.1641342,0.0087 0.3283054,0.01915 0.4927777,0.01553 0.1677973,8e-6 0.3355703,-4.3e-5 0.5033676,0 0.1692809,5.4e-5 0.3386758,3.97e-4 0.5079564,7.05e-4 0.1330008,3.43e-4 0.2658896,4.88e-4 0.3988817,0.0021 0.1433117,0.0019 0.2867761,0.0046 0.4299451,0.01165 0.1144451,0.0069 0.2282149,0.01783 0.3413439,0.03706 0.096201,0.0111 0.190435,0.03193 0.2859241,0.04765 0.1549482,0.0213 0.310311,0.02497 0.4652443,3.62e-4 0.00722,-9.94e-4 0.014314,-0.0028 0.021533,-0.0039 0.031633,0.03209 0.064272,0.06341 0.095308,0.09601 0.208682,0.183903 0.4629106,0.282611 0.7268119,0.354051 0.1003649,0.02181 0.200699,0.04362 0.3014558,0.06354 0.77219367,0.152679 1.29731175,-0.06806 1.52704629,-0.412296 0.16686087,0.0022 0.35051013,-0.01722 0.55066856,-0.06213 0.12356845,-0.02773 0.0537745,-0.01252 0.21038355,-0.04448 0.284855,-0.06398 0.5648909,-0.145333 0.8485945,-0.213914 0.3374034,-0.07586 0.6742321,-0.154846 1.0123828,-0.227327 0.3065292,-0.06526 0.616089,-0.114191 0.92237,-0.180731 0.2528167,-0.05124 0.5057123,-0.103908 0.764229,-0.116488 0.049664,-0.0044 0.099304,-0.01 0.1489629,-0.01447 z m -14.8966436,0.160612 c 0.034052,0.06314 0.040064,0.115678 0,0.150728 -0.025664,-0.02602 -0.021988,-0.07959 0,-0.150728 z" />
    </clipPath>
    <marker
       style="overflow:visible"
       id="marker10-3"
       refX="0"
       refY="0"
       orient="auto-start-reverse"
       inkscape:stockid="Wide arrow"
       markerWidth="1"
       markerHeight="1"
       viewBox="0 0 1 1"
       inkscape:isstock="true"
       inkscape:collect="always"
       preserveAspectRatio="xMidYMid">
      <path
         style="fill:none;stroke:context-stroke;stroke-width:1;stroke-linecap:butt"
         d="M 3,-3 0,0 3,3"
         transform="rotate(180,0.125,0)"
         sodipodi:nodetypes="ccc"
         id="path10-7" />
    </marker>
  </defs>
  <rect
     style="fill:none;stroke:#ffffff;stroke-width:0.249726;stroke-dasharray:none"
     id="rect1"
     width="3.7502739"
     height="71.750275"
     x="22.208195"
     y="4.2852526" />
  <rect
     style="display:inline;fill:none;stroke:#ffffff;stroke-width:0.241914;stroke-dasharray:none"
     id="rect1-6"
     width="3.7580855"
     height="71.758087"
     x="50.985703"
     y="4.2090993" />
  <g
     id="g77"
     transform="translate(9.2166866,37.737896)">
    <path
       style="fill:none;stroke:#ffffff;stroke-width:0.216674;stroke-dasharray:0.216674, 2.60009;stroke-dashoffset:0;marker-start:url(#ArrowWide);marker-end:url(#ArrowWide)"
       d="M 17.576119,20.104629 H 41.237323"
       id="path1" />
    <text
       xml:space="preserve"
       style="font-style:normal;font-variant:normal;font-weight:normal;font-stretch:normal;font-size:2.11667px;font-family:sans-serif;-inkscape-font-specification:'sans-serif, Normal';font-variant-ligatures:normal;font-variant-caps:normal;font-variant-numeric:normal;font-variant-east-asian:normal;fill:#ffffff;stroke-width:1"
       x="38.498562"
       y="18.413584"
       id="text1-4"><tspan
         id="tspan5"
         x="38.498562"
         y="18.413584">2'</tspan></text>
  </g>
  <circle
     style="fill:#ffff00;stroke:none;stroke-width:0.15625;stroke-dasharray:none;stroke-dashoffset:0"
     id="path3"
     cx="27.145641"
     cy="37.832939"
     r="0.625" />
  <circle
     style="fill:#ffff00;stroke:none;stroke-width:0.15625;stroke-dasharray:none;stroke-dashoffset:0"
     id="path3-54"
     cx="49.553226"
     cy="37.603565"
     r="0.625" />
  <rect
     style="fill:none;stroke:#ffffff;stroke-width:0.4;stroke-dasharray:none;stroke-dashoffset:0"
     id="rect3"
     width="1.6"
     height="1.6000003"
     x="26.504702"
     y="41.286346" />
  <text
     xml:space="preserve"
     style="font-style:normal;font-variant:normal;font-weight:normal;font-stretch:normal;font-size:2.11667px;font-family:sans-serif;-inkscape-font-specification:'sans-serif, Normal';font-variant-ligatures:normal;font-variant-caps:normal;font-variant-numeric:normal;font-variant-east-asian:normal;fill:#ffffff;stroke-width:1"
     x="35.915024"
     y="41.189297"
     id="text1-4-5"><tspan
       id="tspan2-3"
       x="35.915024"
       y="41.189297">3'</tspan></text>
  <path
     style="fill:none;stroke:#ffffff;stroke-width:0.265256;stroke-dasharray:0.265256, 3.18307;stroke-dashoffset:0;marker-start:url(#ArrowWide-1);marker-end:url(#ArrowWide-1)"
     d="M 33.748351,40.290586 V 75.751845"
     id="path3-7" />
  <rect
     style="fill:none;stroke:#ffffff;stroke-width:0.4;stroke-dasharray:none;stroke-dashoffset:0"
     id="rect3-9"
     width="1.6"
     height="1.6000003"
     x="26.509827"
     y="38.967304" />
  <path
     style="fill:none;stroke:#ffffff;stroke-width:0.25;stroke-dasharray:0.25, 0.25;stroke-dashoffset:0"
     d="M 17.333869,39.804841 H 35.106537"
     id="path4" />
  <rect
     style="fill:none;stroke:#ffffff;stroke-width:0.4;stroke-dasharray:none;stroke-dashoffset:0"
     id="rect3-7"
     width="1.6"
     height="1.6000003"
     x="48.79538"
     y="41.272797" />
  <rect
     style="fill:none;stroke:#ffffff;stroke-width:0.4;stroke-dasharray:none;stroke-dashoffset:0"
     id="rect3-9-1"
     width="1.6"
     height="1.6000003"
     x="48.773335"
     y="38.98093" />
  <path
     style="fill:none;stroke:#ffff00;stroke-width:0.197538;stroke-dasharray:0.197538, 0.197538;stroke-dashoffset:0"
     d="m 26.409483,27.919907 c 0,0 -1.042745,7.871841 1.888337,7.205336"
     id="path5" />
  <path
     style="fill:none;stroke:#ffff00;stroke-width:0.197538;stroke-dasharray:0.197538, 0.197538;stroke-dashoffset:0"
     d="m 29.032848,42.485481 c 0,0 1.042745,-7.871841 -1.888337,-7.205336"
     id="path5-4" />
  <path
     style="fill:none;stroke:#ffff00;stroke-width:0.197538;stroke-dasharray:0.197538, 0.197538;stroke-dashoffset:0"
     d="m 50.063973,28.313628 c 0,0 1.042745,7.871841 -1.888337,7.205336"
     id="path5-3" />
  <path
     style="fill:none;stroke:#ffff00;stroke-width:0.197538;stroke-dasharray:0.197538, 0.197538;stroke-dashoffset:0"
     d="m 47.440608,42.879202 c 0,0 -1.042745,-7.871841 1.888337,-7.205336"
     id="path5-4-5" />
  <rect
     style="fill:none;stroke:#ffff00;stroke-width:0.125004;stroke-dasharray:none;stroke-dashoffset:0"
     id="rect5"
     width="35.874996"
     height="1.1249957"
     x="20.463511"
     y="2.5685594" />
  <g
     id="g76"
     transform="matrix(0.91244162,0,0,0.91244162,11.285846,12.415564)">
    <text
       xml:space="preserve"
       style="font-style:normal;font-variant:normal;font-weight:normal;font-stretch:normal;font-size:2.11667px;font-family:sans-serif;-inkscape-font-specification:'sans-serif, Normal';font-variant-ligatures:normal;font-variant-caps:normal;font-variant-numeric:normal;font-variant-east-asian:normal;white-space:pre;fill:#ffffff;stroke-width:1"
       x="22.939423"
       y="12.162657"
       id="text1-3"><tspan
         id="tspan41">blk pipe 1&quot; ID</tspan></text>
    <rect
       style="display:inline;fill:none;stroke:url(#linearGradient41);stroke-width:0.317;stroke-linejoin:round;stroke-dasharray:none;stroke-dashoffset:0"
       id="rect5-4"
       width="14.882827"
       height="2.3828273"
       x="-9.6858482"
       y="23.426079"
       transform="matrix(-1.463952,0,0,1.463952,24.054495,-24.850695)"
       clip-path="url(#clipPath75)" />
  </g>
  <rect
     style="fill:none;stroke:#ffff00;stroke-width:0.221054;stroke-dasharray:0.221054, 0.221054;stroke-dashoffset:0"
     id="rect6-7"
     width="0.77894628"
     height="7.8315806"
     x="51.55135"
     y="0.79573911" />
  <rect
     style="fill:none;stroke:#ffff00;stroke-width:0.221054;stroke-dasharray:0.221054, 0.221054;stroke-dashoffset:0"
     id="rect6-7-7"
     width="0.77894628"
     height="7.8315806"
     x="53.300377"
     y="0.76844782" />
  <rect
     style="fill:none;stroke:#ffff00;stroke-width:0.221054;stroke-dasharray:0.221054, 0.221054;stroke-dashoffset:0"
     id="rect6-7-3"
     width="0.77894628"
     height="7.8315806"
     x="22.852739"
     y="0.13781831" />
  <path
     style="fill:#ffff00;stroke:#ffff00;stroke-width:0.343467;stroke-linecap:butt;stroke-linejoin:bevel;stroke-dasharray:none;stroke-dashoffset:0;stroke-opacity:1;marker-end:url(#marker10-3);paint-order:stroke markers fill"
     d="M 46.13936,21.572635 41.925798,7.1205906 M 45.709609,20.229293 41.496049,5.777251"
     id="path9-4"
     sodipodi:nodetypes="cc" />
  <rect
     style="fill:none;stroke:#ffff00;stroke-width:0.221054;stroke-dasharray:0.221054, 0.221054;stroke-dashoffset:0"
     id="rect6-7-7-1"
     width="0.77894628"
     height="7.8315806"
     x="24.601767"
     y="0.110527" />
  <g
     id="g10"
     transform="translate(6.2710539,-5.4028667)">
    <path
       id="rect4"
       style="fill:none;stroke:url(#linearGradient9);stroke-width:0.206;stroke-linecap:butt;stroke-linejoin:bevel;stroke-dasharray:none;paint-order:stroke markers fill"
       transform="matrix(-1,0,0,1,-1.1596978,0.60304293)"
       d="m 5.0085124,15.425476 v 2.849955 H -7.6992391 v -2.849955 h 4.1237793 c -0.00567,0.0045 -0.011427,0.0089 -0.017053,0.01344 -0.1263428,0.101971 -0.022551,0.23015 0.1033529,0.127641 0.032538,-0.02649 0.066174,-0.052 0.1002523,-0.07648 0.029236,-0.01987 0.056467,-0.04225 0.083716,-0.0646 z"
       clip-path="url(#clipPath29)" />
    <text
       xml:space="preserve"
       style="font-style:normal;font-variant:normal;font-weight:normal;font-stretch:normal;font-size:2.11667px;font-family:sans-serif;-inkscape-font-specification:'sans-serif, Normal';font-variant-ligatures:normal;font-variant-caps:normal;font-variant-numeric:normal;font-variant-east-asian:normal;white-space:pre;shape-inside:url(#rect4);fill:#ffffff;stroke-width:1"
       x="-7.1646433"
       y="20.697844"
       id="text1"
       transform="translate(0.41749119,0.27832748)"><tspan
         x="-6.1679688"
         y="17.960399"
         id="tspan1">4&quot; x 4&quot; x 6'</tspan></text>
    <path
       style="fill:#00ff00;stroke:#00ff00;stroke-width:0.2;stroke-linecap:butt;stroke-linejoin:bevel;stroke-dasharray:none;stroke-dashoffset:0;stroke-opacity:1;marker-end:url(#marker10);paint-order:stroke markers fill"
       d="M 6.5638901,17.511438 H 14.612194 M 7.3176939,17.488245 H 15.365997"
       id="path9"
       sodipodi:nodetypes="cc" />
  </g>
</svg>
